# This file uses centimeters as units for non-parametric coordinates.

mtllib panel.mtl
v -0.265909 1.031603 0.170999
v -0.282730 1.048710 0.390339
v -0.282730 0.894365 0.378072
v -0.265909 0.945902 0.164188
v -0.396826 1.051181 0.359242
v -0.396826 0.896836 0.346975
v -0.329262 1.032975 0.153732
v -0.265668 1.075949 -0.214148
v -0.265668 0.962948 -0.223129
v -0.329262 0.947274 0.146921
v -0.182135 1.074139 -0.191381
v -0.182135 0.961138 -0.200362
v 0.287218 1.050918 0.161288
v 0.343748 1.119251 0.362759
v 0.346950 0.966363 0.386930
v 0.288996 0.966026 0.174709
v 0.212692 1.119251 0.386426
v 0.215894 0.966363 0.410596
v 0.214448 1.050918 0.174429
v 0.153503 1.004477 -0.196041
v 0.155847 0.892542 -0.178346
v 0.216226 0.966026 0.187850
v 0.249453 1.004477 -0.213368
v 0.251798 0.892542 -0.195673
v 0.012724 1.150328 0.147248
v 0.012724 1.150328 -0.059619
v 0.012724 -0.746081 -0.093936
v 0.012724 -0.746081 0.182963
v 0.263604 1.250436 -0.059619
v 0.497795 1.072800 -0.059619
v 0.514485 -0.746081 -0.084824
v 0.263604 -0.580762 -0.084824
v 0.497795 1.072800 0.147248
v 0.514485 -0.746081 0.172454
v 0.263604 1.250436 0.147248
v 0.263604 -0.580762 0.172454
v -0.450877 1.150328 0.147248
v -0.450877 1.150328 -0.059619
v -0.482202 -0.746081 -0.084824
v -0.482202 -0.746081 0.172454
v -0.206923 1.250436 -0.059619
v -0.042251 1.112693 -0.059619
v -0.042251 -0.746081 -0.084824
v -0.202739 -0.647872 -0.084824
v -0.042251 1.112693 0.147248
v -0.042251 -0.746081 0.195508
v -0.206923 1.250436 0.147248
v -0.202739 -0.647872 0.172454
v -0.042251 0.183307 0.111780
v -0.466539 0.202124 -0.024150
v -0.466539 0.202124 0.111780
v -0.204831 0.301282 -0.024150
v -0.204831 0.301282 0.111780
v -0.042251 0.183307 -0.024150
v 0.263604 0.334837 -0.024150
v 0.506140 0.163360 -0.024150
v 0.263604 0.334837 0.111780
v 0.012724 0.202124 -0.024150
v 0.012724 0.202124 0.111780
v 0.506140 0.163359 0.111780
vt 0.500000 0.000000
vt 1.000000 0.000000
vt 1.000000 1.000000
vt 0.500000 1.000000
vt 0.500000 0.000000
vt 1.000000 0.000000
vt 1.000000 1.000000
vt 0.500000 1.000000
vt 0.250000 1.000000
vt 0.250000 0.000000
vt 0.500000 0.000000
vt 0.500000 1.000000
vt 0.250000 0.500000
vt 0.500000 0.500000
vt -0.000000 1.000000
vt -0.000000 -0.000000
vt -0.000000 0.500000
vt 0.500000 0.000000
vt 1.000000 0.000000
vt 1.000000 1.000000
vt 0.500000 1.000000
vt 0.500000 0.000000
vt 1.000000 0.000000
vt 1.000000 1.000000
vt 0.500000 1.000000
vt 0.500000 0.000000
vt 1.000000 0.000000
vt 1.000000 1.000000
vt 0.500000 1.000000
vt 0.500000 0.000000
vt 1.000000 0.000000
vt 1.000000 1.000000
vt 0.500000 1.000000
vt 1.000000 1.000000
vt 0.500000 1.000000
vt 0.500000 0.000000
vt 1.000000 0.000000
vt 0.500000 0.000000
vt 1.000000 0.000000
vt 1.000000 1.000000
vt 0.500000 1.000000
vt 0.500000 0.000000
vt 1.000000 0.000000
vt 1.000000 1.000000
vt 0.500000 1.000000
vt 0.500000 0.000000
vt 1.000000 0.000000
vt 1.000000 1.000000
vt 0.500000 1.000000
vt 1.000000 1.000000
vt 0.500000 1.000000
vt 0.500000 0.000000
vt 1.000000 0.000000
vt 0.500000 0.000000
vt 1.000000 0.000000
vt 1.000000 1.000000
vt 0.500000 1.000000
vt 0.500000 0.000000
vt 1.000000 0.000000
vt 1.000000 1.000000
vt 0.500000 1.000000
vt 0.500000 0.000000
vt 1.000000 0.000000
vt 1.000000 1.000000
vt 0.500000 1.000000
vt 0.500000 0.000000
vt 1.000000 0.000000
vt 1.000000 1.000000
vt 0.500000 1.000000
vt 1.000000 1.000000
vt 0.500000 1.000000
vt 0.500000 0.000000
vt 1.000000 0.000000
vt 0.500000 0.000000
vt 1.000000 0.000000
vt 1.000000 1.000000
vt 0.500000 1.000000
vt 0.500000 0.000000
vt 1.000000 0.000000
vt 1.000000 1.000000
vt 0.500000 1.000000
vt 0.500000 0.000000
vt 1.000000 0.000000
vt 1.000000 1.000000
vt 0.500000 1.000000
vt 1.000000 1.000000
vt 0.500000 1.000000
vt 0.500000 0.000000
vt 1.000000 0.000000
vt 0.250000 0.000000
vt 0.500000 0.000000
vt 0.250000 1.000000
vt 0.250000 0.000000
vt 0.500000 0.000000
vt 0.500000 1.000000
vt 0.250000 0.500000
vt 0.250000 0.000000
vt 0.500000 0.000000
vt 0.500000 0.500000
vt 0.250000 1.000000
vt 0.250000 0.000000
vt 0.500000 0.000000
vt 0.500000 1.000000
vt 0.500000 0.000000
vt 0.500000 1.000000
vt 0.250000 1.000000
vt 0.250000 0.000000
vt 0.250000 1.000000
vt 0.500000 1.000000
vt 0.250000 1.000000
vt 0.250000 0.500000
vt 0.500000 0.500000
vt 0.500000 1.000000
vt 0.250000 0.000000
vt 0.250000 1.000000
vt -0.000000 1.000000
vt -0.000000 -0.000000
vt 0.250000 0.000000
vt 0.250000 1.000000
vt 0.250000 1.000000
vt 0.250000 0.000000
vt 0.500000 0.000000
vt 0.500000 1.000000
vt 0.250000 0.500000
vt 0.250000 0.000000
vt 0.500000 0.000000
vt 0.500000 0.500000
vt 0.250000 1.000000
vt 0.250000 0.000000
vt 0.500000 0.000000
vt 0.500000 1.000000
vt 0.250000 0.500000
vt 0.250000 0.000000
vt 0.500000 0.000000
vt 0.500000 0.500000
vt 0.250000 1.000000
vt 0.250000 0.000000
vt 0.500000 0.000000
vt 0.500000 1.000000
vt 0.250000 1.000000
vt 0.250000 0.000000
vt 0.500000 0.000000
vt 0.500000 1.000000
vt 0.250000 1.000000
vt 0.250000 0.500000
vt 0.500000 0.500000
vt 0.500000 1.000000
vt 0.250000 1.000000
vt 0.250000 0.500000
vt 0.500000 0.500000
vt 0.500000 1.000000
vt -0.000000 1.000000
vt -0.000000 -0.000000
vt 0.250000 0.000000
vt 0.250000 1.000000
vt -0.000000 1.000000
vt -0.000000 -0.000000
vt 0.250000 0.000000
vt 0.250000 1.000000
vt -0.000000 1.000000
vt -0.000000 -0.000000
vt 0.250000 0.000000
vt 0.250000 1.000000
vt -0.000000 -0.000000
vt 0.250000 0.000000
vt 0.250000 0.500000
vt -0.000000 1.000000
vt -0.000000 -0.000000
vt 0.250000 0.000000
vt 0.250000 1.000000
vt -0.000000 0.500000
vt -0.000000 -0.000000
vt 0.250000 0.000000
vt 0.250000 0.500000
vt -0.000000 1.000000
vt 0.250000 0.500000
vt 0.250000 1.000000
vt -0.000000 1.000000
vt -0.000000 0.500000
vt 0.250000 0.500000
vt 0.250000 1.000000
vt -0.000000 1.000000
vt -0.000000 -0.000000
vt -0.000000 0.500000
vt -0.000000 -0.000000
vt 0.250000 0.000000
vt -0.000000 1.000000
vt -0.000000 -0.000000
vt 0.250000 0.000000
vt 0.250000 1.000000
vt -0.000000 0.500000
vt -0.000000 -0.000000
vt 0.250000 0.000000
vt 0.250000 0.500000
vt -0.000000 1.000000
vt -0.000000 0.500000
vt 0.250000 1.000000
vt -0.000000 1.000000
vt -0.000000 0.500000
vt 0.250000 0.500000
vt 0.250000 1.000000
vn 0.997017 -0.006114 0.076936
vn 0.997017 -0.006114 0.076936
vn 0.997017 -0.006114 0.076936
vn 0.997017 -0.006114 0.076936
vn -0.263729 -0.076421 0.961565
vn -0.263729 -0.076421 0.961565
vn -0.263729 -0.076421 0.961565
vn -0.263729 -0.076421 0.961565
vn -0.985559 0.013415 -0.168802
vn -0.985559 0.013415 -0.168802
vn -0.985559 0.013415 -0.168802
vn -0.985559 0.013415 -0.168802
vn 0.263729 0.076421 -0.961565
vn 0.263729 0.076421 -0.961565
vn 0.263729 0.076421 -0.961565
vn 0.263729 0.076421 -0.961565
vn 0.041885 -0.972068 -0.230932
vn 0.041885 -0.972068 -0.230932
vn 0.041885 -0.972068 -0.230932
vn 0.041885 -0.972068 -0.230932
vn 0.041884 0.996342 -0.074494
vn 0.041884 0.996342 -0.074494
vn 0.041884 0.996342 -0.074494
vn 0.041884 0.996342 -0.074494
vn 0.974605 -0.017741 0.223225
vn 0.974605 -0.017741 0.223225
vn 0.974605 -0.017741 0.223225
vn 0.974606 -0.017741 0.223225
vn -0.949023 0.024973 -0.314214
vn -0.949023 0.024973 -0.314215
vn -0.949024 0.024973 -0.314215
vn -0.949024 0.024973 -0.314215
vn -0.009654 -0.998986 -0.043971
vn -0.009654 -0.998986 -0.043971
vn -0.009654 -0.998986 -0.043971
vn -0.009654 -0.998986 -0.043971
vn -0.009656 0.993391 0.114373
vn -0.009656 0.993391 0.114373
vn -0.009656 0.993391 0.114373
vn -0.009656 0.993391 0.114373
vn 0.964464 -0.021434 -0.263343
vn 0.964464 -0.021434 -0.263343
vn 0.964464 -0.021434 -0.263343
vn 0.964464 -0.021434 -0.263343
vn 0.175492 0.157315 0.971830
vn 0.175492 0.157315 0.971830
vn 0.175492 0.157315 0.971830
vn 0.175492 0.157315 0.971830
vn -0.986824 0.004902 0.161725
vn -0.986824 0.004902 0.161725
vn -0.986824 0.004902 0.161725
vn -0.986824 0.004902 0.161725
vn -0.175495 -0.157311 -0.971831
vn -0.175495 -0.157311 -0.971831
vn -0.175495 -0.157311 -0.971831
vn -0.175495 -0.157311 -0.971831
vn 0.000274 -0.999999 0.001517
vn 0.000274 -0.999999 0.001517
vn 0.000274 -0.999999 0.001517
vn 0.000274 -0.999999 0.001517
vn -0.055390 0.950184 -0.306729
vn -0.055390 0.950184 -0.306729
vn -0.055390 0.950184 -0.306729
vn -0.055390 0.950184 -0.306729
vn 0.994886 0.004888 -0.100889
vn 0.994886 0.004888 -0.100889
vn 0.994886 0.004888 -0.100889
vn 0.994886 0.004888 -0.100889
vn -0.999775 -0.021169 -0.001458
vn -0.999775 -0.021169 -0.001458
vn -0.999775 -0.021169 -0.001458
vn -0.999775 -0.021169 -0.001458
vn 0.034519 -0.980953 0.191153
vn 0.034519 -0.980953 0.191153
vn 0.034519 -0.980953 0.191153
vn 0.034519 -0.980953 0.191153
vn -0.021818 0.992435 -0.120820
vn -0.021818 0.992435 -0.120820
vn -0.021818 0.992435 -0.120820
vn -0.021818 0.992435 -0.120820
vn -1.000000 -0.000000 0.000000
vn -1.000000 -0.000000 0.000000
vn -1.000000 -0.000000 0.000000
vn -1.000000 -0.000000 0.000000
vn 0.045379 0.066482 -0.996755
vn 0.045379 0.066482 -0.996755
vn 0.045379 0.066482 -0.996755
vn 0.045379 0.066482 -0.996755
vn 0.999958 0.009176 0.000000
vn 0.999958 0.009176 0.000000
vn 0.999958 0.009176 0.000000
vn 0.999958 0.009176 0.000000
vn -0.021019 0.070554 0.997286
vn -0.021019 0.070554 0.997286
vn -0.021019 0.070554 0.997286
vn -0.021019 0.070554 0.997286
vn -0.550233 -0.835011 0.000000
vn -0.550233 -0.835011 0.000000
vn -0.550233 -0.835011 0.000000
vn -0.550233 -0.835011 0.000000
vn -0.370611 0.928788 0.000000
vn -0.370611 0.928788 0.000000
vn -0.370611 0.928788 0.000000
vn -0.370611 0.928788 0.000000
vn -0.023352 0.069807 -0.997287
vn -0.023352 0.069807 -0.997287
vn -0.023352 0.069807 -0.997287
vn -0.023352 0.069807 -0.997287
vn 0.045379 0.066482 0.996755
vn 0.045379 0.066482 0.996755
vn 0.045379 0.066482 0.996755
vn 0.045379 0.066482 0.996755
vn 0.550234 -0.835010 0.000000
vn 0.550234 -0.835010 0.000000
vn 0.550234 -0.835010 0.000000
vn 0.550234 -0.835010 0.000000
vn 0.604329 0.796735 0.000000
vn 0.604329 0.796735 0.000000
vn 0.604329 0.796735 0.000000
vn 0.604329 0.796735 0.000000
vn -0.999864 0.016516 0.000000
vn -0.999864 0.016516 0.000000
vn -0.999864 0.016516 0.000000
vn -0.999864 0.016516 0.000000
vn 0.043127 0.064450 -0.996989
vn 0.043127 0.064450 -0.996989
vn 0.043127 0.064450 -0.996989
vn 0.043127 0.064450 -0.996989
vn 1.000000 -0.000000 0.000000
vn 1.000000 -0.000000 0.000000
vn 1.000000 -0.000000 0.000000
vn 1.000000 -0.000000 0.000000
vn -0.023332 0.063974 0.997679
vn -0.023332 0.063974 0.997679
vn -0.023332 0.063974 0.997679
vn -0.023332 0.063974 0.997679
vn -0.521961 -0.852969 0.000000
vn -0.521961 -0.852969 0.000000
vn -0.521961 -0.852969 0.000000
vn -0.521961 -0.852969 0.000000
vn -0.379635 0.925136 0.000000
vn -0.379635 0.925136 0.000000
vn -0.379635 0.925136 0.000000
vn -0.379635 0.925136 0.000000
vn -0.023332 0.063974 -0.997679
vn -0.023332 0.063974 -0.997679
vn -0.023332 0.063974 -0.997679
vn -0.023332 0.063974 -0.997679
vn -0.019876 0.076606 0.996863
vn -0.019876 0.076606 0.996863
vn -0.019876 0.076606 0.996863
vn -0.019876 0.076606 0.996863
vn 0.331542 -0.943440 0.000000
vn 0.331542 -0.943440 0.000000
vn 0.331542 -0.943440 0.000000
vn 0.331542 -0.943440 0.000000
vn 0.641598 0.767041 0.000000
vn 0.641598 0.767041 0.000000
vn 0.641598 0.767041 0.000000
vn 0.641598 0.767041 0.000000
vn -0.999864 0.016515 0.000000
vn -0.999864 0.016515 0.000000
vn -0.999864 0.016515 0.000000
vn -0.999864 0.016515 0.000000
vn -0.029499 -0.037751 -0.998852
vn -0.029499 -0.037751 -0.998852
vn -0.029499 -0.037751 -0.998852
vn -0.029499 -0.037751 -0.998852
vn 1.000000 0.000000 0.000000
vn 1.000000 0.000000 0.000000
vn 1.000000 0.000000 0.000000
vn 1.000000 0.000000 0.000000
vn 0.014763 -0.037463 0.999189
vn 0.014763 -0.037463 0.999189
vn 0.014763 -0.037463 0.999189
vn 0.014763 -0.037463 0.999189
vn 0.014763 -0.037463 -0.999189
vn 0.014763 -0.037463 -0.999189
vn 0.014763 -0.037463 -0.999189
vn 0.014763 -0.037463 -0.999189
vn -0.029499 -0.037751 0.998852
vn -0.029499 -0.037751 0.998852
vn -0.029499 -0.037751 0.998852
vn -0.029499 -0.037751 0.998852
vn -1.000000 0.000000 0.000000
vn -1.000000 0.000000 0.000000
vn -1.000000 0.000000 0.000000
vn -1.000000 0.000000 0.000000
vn -0.028526 -0.038954 -0.998834
vn -0.028526 -0.038954 -0.998834
vn -0.028526 -0.038954 -0.998834
vn -0.028526 -0.038954 -0.998834
vn 0.999958 0.009176 0.000000
vn 0.999958 0.009176 0.000000
vn 0.999958 0.009176 0.000000
vn 0.999958 0.009176 0.000000
vn 0.017645 -0.038027 0.999121
vn 0.017645 -0.038027 0.999121
vn 0.017645 -0.038027 0.999121
vn 0.017645 -0.038027 0.999121
vn 0.017645 -0.038027 -0.999121
vn 0.017645 -0.038027 -0.999121
vn 0.017645 -0.038027 -0.999121
vn 0.017645 -0.038027 -0.999121
vn -0.028526 -0.038954 0.998834
vn -0.028526 -0.038954 0.998834
vn -0.028526 -0.038954 0.998834
vn -0.028526 -0.038954 0.998834
s off
f 1/1/1 2/2/2 3/3/3 4/4/4
f 2/18/5 5/19/6 6/20/7 3/21/8
f 7/22/9 8/23/10 9/24/11 10/25/12
f 8/26/13 11/27/14 12/28/15 9/29/16
f 4/30/17 3/31/18 6/32/19 10/33/20
f 2/34/21 1/35/22 7/36/23 5/37/24
f 11/38/25 1/39/26 4/40/27 12/41/28
f 5/42/29 7/43/30 10/44/31 6/45/32
f 12/46/33 4/47/34 10/48/35 9/49/36
f 1/50/37 11/51/38 8/52/39 7/53/40
f 13/5/41 14/6/42 15/7/43 16/8/44
f 14/54/45 17/55/46 18/56/47 15/57/48
f 19/58/49 20/59/50 21/60/51 22/61/52
f 20/62/53 23/63/54 24/64/55 21/65/56
f 16/66/57 15/67/58 18/68/59 22/69/60
f 14/70/61 13/71/62 19/72/63 17/73/64
f 23/74/65 13/75/66 16/76/67 24/77/68
f 17/78/69 19/79/70 22/80/71 18/81/72
f 24/82/73 16/83/74 22/84/75 21/85/76
f 13/86/77 23/87/78 20/88/79 19/89/80
f 59/9/81 58/10/82 27/11/83 28/12/84
f 55/13/85 56/90/86 31/91/87 32/14/88
f 56/92/89 60/93/90 34/94/91 31/95/92
f 57/96/93 59/97/94 28/98/95 36/99/96
f 36/100/97 32/101/98 31/102/99 34/103/100
f 26/104/101 25/105/102 35/106/103 29/107/104
f 58/108/105 55/13/106 32/14/107 27/109/108
f 60/110/109 57/111/110 36/112/111 34/113/112
f 28/15/113 27/16/114 32/114/115 36/115/116
f 33/116/117 30/117/118 29/118/119 35/119/120
f 51/120/121 50/121/122 39/122/123 40/123/124
f 52/124/125 54/125/126 43/126/127 44/127/128
f 54/128/129 49/129/130 46/130/131 43/131/132
f 53/132/133 51/133/134 40/134/135 48/135/136
f 48/136/137 44/137/138 43/138/139 46/139/140
f 47/140/141 41/141/142 38/142/143 37/143/144
f 50/144/145 52/145/146 44/146/147 39/147/148
f 49/148/149 53/149/150 48/150/151 46/151/152
f 40/152/153 39/153/154 44/154/155 48/155/156
f 45/156/157 42/157/158 41/158/159 47/159/160
f 37/160/161 38/161/162 50/162/163 51/163/164
f 41/17/165 42/164/166 54/165/167 52/166/168
f 42/167/169 45/168/170 49/169/171 54/170/172
f 47/171/173 37/172/174 51/173/175 53/174/176
f 38/175/177 41/17/178 52/176/179 50/177/180
f 45/178/181 47/179/182 53/180/183 49/181/184
f 25/182/185 26/183/186 58/10/187 59/9/188
f 29/184/189 30/185/190 56/186/191 55/13/192
f 30/187/193 33/188/194 60/189/195 56/190/196
f 35/191/197 25/192/198 59/193/199 57/194/200
f 26/195/201 29/196/202 55/13/203 58/197/204
f 33/198/205 35/199/206 57/200/207 60/201/208
