# This file uses centimeters as units for non-parametric coordinates.

v -0.629883 0.641438 -0.629883
v 0.629883 0.641438 -0.629883
v 0.629883 0.641438 0.629883
v -0.629883 0.641438 0.629883
v -0.960497 1.268024 0.889793
v -0.889793 1.268024 0.960497
v -0.900791 1.308635 0.900791
v 0.900791 1.308635 0.900791
v 0.889793 1.268024 0.960497
v 0.960497 1.268024 0.889793
v -0.960497 1.268024 -0.889793
v -0.900791 1.308635 -0.900791
v -0.889793 1.268024 -0.960497
v 0.889793 1.268024 -0.960497
v 0.900791 1.308635 -0.900791
v 0.960497 1.268024 -0.889793
v -0.926517 0.761817 0.926517
v -0.889793 0.775606 0.960497
v -0.960497 0.775606 0.889793
v 0.926517 0.761817 0.926517
v 0.960497 0.775606 0.889793
v 0.889793 0.775606 0.960497
v -0.926517 0.761817 -0.926517
v -0.960497 0.775606 -0.889793
v -0.889793 0.775606 -0.960497
v 0.926517 0.761817 -0.926517
v 0.889793 0.775606 -0.960497
v 0.960497 0.775606 -0.889793
v -0.668139 1.267634 0.668139
v 0.668139 1.267634 0.668139
v -0.668139 1.267634 -0.668139
v 0.668139 1.267634 -0.668139
v -0.668139 1.405673 0.668139
v -0.595749 1.440966 0.595749
v 0.595749 1.440966 0.595749
v 0.668139 1.405673 0.668139
v -0.595749 1.440966 -0.595749
v -0.668139 1.405673 -0.668139
v 0.595749 1.440966 -0.595749
v 0.668139 1.405673 -0.668139
v -0.468360 -0.019102 0.468360
v 0.468360 -0.019102 0.468360
v 0.468360 -0.019102 -0.468360
v -0.468360 -0.019102 -0.468360
v -0.714193 -0.641838 -0.643490
v -0.643490 -0.641838 -0.714193
v -0.643490 -0.691723 -0.643490
v 0.643490 -0.691723 -0.643490
v 0.643490 -0.641838 -0.714193
v 0.714193 -0.641838 -0.643490
v -0.714193 -0.641838 0.643490
v -0.643490 -0.691723 0.643490
v -0.643490 -0.641838 0.714193
v 0.643490 -0.641838 0.714193
v 0.643490 -0.691723 0.643490
v 0.714193 -0.641838 0.643490
v -0.681462 -0.128708 -0.681462
v -0.643490 -0.147598 -0.714193
v -0.714193 -0.147598 -0.643490
v 0.681462 -0.128708 -0.681462
v 0.714193 -0.147598 -0.643490
v 0.643490 -0.147598 -0.714193
v -0.681462 -0.128708 0.681462
v -0.714193 -0.147598 0.643490
v -0.643490 -0.147598 0.714193
v 0.681462 -0.128708 0.681462
v 0.643490 -0.147598 0.714193
v 0.714193 -0.147598 0.643490
v -0.616658 -0.642602 0.616658
v 0.616658 -0.642602 0.616658
v -0.616658 -0.642602 -0.616658
v 0.616658 -0.642602 -0.616658
v -0.438771 -0.811704 -0.438771
v 0.438771 -0.811704 -0.438771
v 0.438771 -0.811704 0.438771
v -0.438771 -0.811704 0.438771
v -0.438771 -0.590478 -0.438771
v 0.438771 -0.590478 -0.438771
v 0.438771 -0.590478 0.438771
v -0.438771 -0.590478 0.438771
v -0.616658 -0.769986 0.616658
v -0.545955 -0.811704 0.545955
v 0.616658 -0.769986 0.616658
v 0.545955 -0.811704 0.545955
v -0.616658 -0.769986 -0.616658
v -0.545955 -0.811704 -0.545955
v 0.616658 -0.769986 -0.616658
v 0.545955 -0.811704 -0.545955
v -0.185180 -0.795089 0.185180
v 0.185180 -0.795089 0.185180
v -0.185180 1.555098 0.185180
v 0.185180 1.555098 0.185180
v -0.185180 1.555098 -0.185180
v 0.185180 1.555098 -0.185180
v -0.185180 -0.795089 -0.185180
v 0.185180 -0.795089 -0.185180
v 0.185180 1.039440 0.185180
v -0.185180 1.039440 0.185180
v -0.185180 1.039440 -0.185180
v 0.185180 1.039440 -0.185180
v 0.185180 -0.425716 0.185180
v -0.185180 -0.425716 0.185180
v -0.185180 -0.425716 -0.185180
v 0.185180 -0.425716 -0.185180
v 0.314248 1.107402 0.243544
v 0.243544 1.107402 0.314248
v 0.314248 -0.493678 0.243544
v 0.243544 -0.493678 0.314248
v -0.243544 1.107402 0.314248
v -0.314248 1.107402 0.243544
v -0.243544 -0.493678 0.314248
v -0.314248 -0.493678 0.243544
v -0.314248 1.107402 -0.243544
v -0.243544 1.107402 -0.314248
v -0.314248 -0.493678 -0.243544
v -0.243544 -0.493678 -0.314248
v 0.243544 1.107402 -0.314248
v 0.314248 1.107402 -0.243544
v 0.243544 -0.493678 -0.314248
v 0.314248 -0.493678 -0.243544
vt 0.341661 0.162715
vt 0.494820 0.162715
vt 0.494820 0.315874
vt 0.341661 0.315874
vt 0.305598 0.351937
vt 0.301466 0.347473
vt 0.301466 0.131116
vt 0.305598 0.126651
vt 0.530883 0.351937
vt 0.526419 0.356069
vt 0.310062 0.356069
vt 0.310062 0.122520
vt 0.526419 0.122520
vt 0.530883 0.126651
vt 0.535015 0.131116
vt 0.535015 0.347473
vt 0.232955 0.657896
vt 0.240108 0.660965
vt 0.240108 0.975369
vt 0.232955 0.978438
vt 0.232955 0.649219
vt 0.146947 0.657959
vt 0.146947 0.649219
vt 0.244152 0.975574
vt 0.234022 0.978345
vt 0.234022 0.657014
vt 0.244152 0.659786
vt 0.239205 0.975349
vt 0.233568 0.978417
vt 0.233568 0.657876
vt 0.239206 0.660944
vt 0.233568 0.988337
vt 0.147560 0.988337
vt 0.147560 0.979596
vt 0.232955 0.988357
vt 0.146947 0.988357
vt 0.146947 0.979617
vt 0.147718 0.978901
vt 0.137589 0.976130
vt 0.137589 0.660341
vt 0.147718 0.657570
vt 0.233568 0.649198
vt 0.147560 0.657938
vt 0.147560 0.649198
vt 0.148015 0.978509
vt 0.148015 0.656851
vt 0.261691 0.663287
vt 0.583174 0.663287
vt 0.583174 0.974450
vt 0.261691 0.974450
vt 0.233726 0.657407
vt 0.233726 0.979065
vt 0.237500 0.650835
vt 0.236598 0.985478
vt 0.237500 0.985499
vt 0.236598 0.650815
vt 0.144545 0.651321
vt 0.145158 0.986234
vt 0.144545 0.986255
vt 0.145158 0.651301
vt 0.761399 0.754506
vt 0.774205 0.767311
vt 0.774205 0.978089
vt 0.761399 0.990895
vt 0.997789 0.754506
vt 0.984983 0.767311
vt 0.997789 0.990895
vt 0.984983 0.978089
vt 0.723041 0.979273
vt 0.723041 0.765959
vt 0.745077 0.765959
vt 0.745077 0.979273
vt 0.745996 0.765969
vt 0.745798 0.979283
vt 0.723762 0.979262
vt 0.723961 0.765949
vt 0.722377 0.979273
vt 0.722377 0.765959
vt 0.744412 0.765959
vt 0.744412 0.979273
vt 0.723197 0.979273
vt 0.723197 0.765959
vt 0.745233 0.765959
vt 0.745233 0.979273
vt 0.065492 0.159964
vt 0.215730 0.159964
vt 0.215730 0.310201
vt 0.065492 0.310201
vt 0.031313 0.344380
vt 0.026063 0.338290
vt 0.026063 0.131875
vt 0.031313 0.125785
vt 0.249908 0.344380
vt 0.243818 0.349630
vt 0.037403 0.349630
vt 0.037403 0.120535
vt 0.243818 0.120535
vt 0.249908 0.125785
vt 0.255158 0.131875
vt 0.255158 0.338290
vt 0.276405 0.385320
vt 0.287147 0.385320
vt 0.287147 0.614626
vt 0.276405 0.614627
vt 0.035512 0.900032
vt 0.035512 0.887643
vt 0.103759 0.887643
vt 0.103759 0.900032
vt 0.287148 0.372723
vt 0.516454 0.372723
vt 0.517072 0.385320
vt 0.527815 0.385320
vt 0.527815 0.614627
vt 0.517072 0.614627
vt 0.035804 0.662398
vt 0.035804 0.650009
vt 0.104051 0.650009
vt 0.104051 0.662398
vt 0.035512 0.662130
vt 0.035512 0.649740
vt 0.103759 0.649740
vt 0.103759 0.662130
vt 0.287148 0.627224
vt 0.516454 0.627224
vt 0.035804 0.900301
vt 0.035804 0.887912
vt 0.104051 0.887912
vt 0.104051 0.900301
vt 0.103495 0.888262
vt 0.035248 0.888262
vt 0.035248 0.662749
vt 0.103495 0.662749
vt 0.035371 0.887979
vt 0.035371 0.662466
vt 0.103618 0.662466
vt 0.103618 0.887979
vt 0.107069 0.894297
vt 0.107361 0.655744
vt 0.107069 0.655476
vt 0.107361 0.894566
vt 0.045819 0.421033
vt 0.210678 0.421033
vt 0.187935 0.443776
vt 0.068562 0.443776
vt 0.210678 0.585892
vt 0.187935 0.563149
vt 0.045819 0.585892
vt 0.068562 0.563149
vt 0.014215 0.619310
vt 0.024775 0.606028
vt 0.231721 0.606028
vt 0.242281 0.619310
vt 0.014216 0.387614
vt 0.024775 0.400897
vt 0.231721 0.400897
vt 0.242281 0.387614
vt 0.723922 0.978009
vt 0.723922 0.766913
vt 0.744742 0.766913
vt 0.744742 0.978009
vt 0.724560 0.978009
vt 0.724560 0.766913
vt 0.745379 0.766913
vt 0.745379 0.978009
vt 0.724432 0.978009
vt 0.724432 0.766913
vt 0.745252 0.766913
vt 0.745252 0.978009
vt 0.724367 0.978826
vt 0.724367 0.767730
vt 0.745187 0.767730
vt 0.745187 0.978826
vt 0.626018 0.334407
vt 0.680047 0.334407
vt 0.626018 0.396930
vt 0.852489 0.388436
vt 0.852489 0.334407
vt 0.906518 0.334407
vt 0.906518 0.388436
vt 0.736714 0.621428
vt 0.736714 0.683950
vt 0.682685 0.683950
vt 0.904475 0.443798
vt 0.904475 0.389769
vt 0.958504 0.389769
vt 0.958504 0.443798
vt 0.739286 0.334407
vt 0.793315 0.334407
vt 0.739286 0.396930
vt 0.795888 0.334407
vt 0.849917 0.334407
vt 0.795888 0.396930
vt 0.680047 0.610670
vt 0.680047 0.683950
vt 0.626018 0.683950
vt 0.849917 0.610670
vt 0.849917 0.683950
vt 0.795888 0.683950
vt 0.682685 0.334407
vt 0.736714 0.334407
vt 0.682685 0.407687
vt 0.793315 0.610670
vt 0.793315 0.683950
vt 0.739286 0.683950
vt 0.626018 0.610670
vt 0.680047 0.396930
vt 0.849526 0.602680
vt 0.795888 0.610670
vt 0.849917 0.396930
vt 0.736714 0.407687
vt 0.683076 0.415677
vt 0.793644 0.602680
vt 0.739286 0.610670
vt 0.682685 0.621428
vt 0.793315 0.396930
vt 0.750598 0.404920
vt 0.849526 0.404920
vt 0.683076 0.613437
vt 0.750598 0.602680
vt 0.794074 0.404920
vt 0.680507 0.404920
vt 0.638356 0.602680
vt 0.626395 0.602680
vt 0.626395 0.404920
vt 0.801870 0.602680
vt 0.793992 0.602680
vt 0.793992 0.404920
vt 0.729677 0.415677
vt 0.738241 0.415677
vt 0.738241 0.613437
vt 0.739871 0.602680
vt 0.638356 0.404920
vt 0.801870 0.404920
vt 0.729677 0.613437
vt 0.739871 0.404920
vt 0.680507 0.602680
vn 0.000000 -1.000000 0.000000
vn 0.000000 -1.000000 0.000000
vn 0.000000 -1.000000 0.000000
vn 0.000000 -1.000000 0.000000
vn -0.376033 -0.926606 0.000000
vn -0.376033 -0.926606 0.000000
vn -0.376033 -0.926606 0.000000
vn -0.376033 -0.926606 0.000000
vn -0.376033 -0.926606 0.000000
vn -0.376033 -0.926606 0.000000
vn 0.000000 -0.926606 0.376033
vn 0.000000 -0.926606 0.376033
vn 0.000000 -0.926606 0.376033
vn 0.000000 -0.926606 0.376033
vn 0.000000 -0.926606 0.376033
vn 0.000000 -0.926606 0.376033
vn 0.000000 -0.926606 -0.376033
vn 0.000000 -0.926606 -0.376033
vn 0.000000 -0.926606 -0.376033
vn 0.000000 -0.926606 -0.376033
vn 0.000000 -0.926606 -0.376033
vn 0.000000 -0.926606 -0.376033
vn 0.376033 -0.926606 0.000000
vn 0.376033 -0.926606 0.000000
vn 0.376033 -0.926606 0.000000
vn 0.376033 -0.926606 0.000000
vn 0.376033 -0.926606 0.000000
vn 0.376033 -0.926606 0.000000
vn -0.562417 0.826854 0.000000
vn -0.562417 0.826854 0.000000
vn -0.562417 0.826854 0.000000
vn -0.562417 0.826854 0.000000
vn -0.707107 0.000000 0.707107
vn -0.707107 0.000000 0.707107
vn -0.707107 0.000339 0.707107
vn -0.707107 0.000339 0.707107
vn 0.000000 0.826853 0.562419
vn 0.000000 0.826853 0.562419
vn 0.000000 0.826853 0.562419
vn 0.000000 0.826853 0.562419
vn 0.562417 0.826854 0.000000
vn 0.562417 0.826854 0.000000
vn 0.562417 0.826854 0.000000
vn 0.562417 0.826854 0.000000
vn 0.707107 0.000000 0.707107
vn 0.707107 0.000000 0.707107
vn 0.707107 0.000339 0.707107
vn 0.707107 0.000339 0.707107
vn -0.707107 0.000000 -0.707107
vn -0.707107 0.000000 -0.707107
vn -0.707107 0.000339 -0.707107
vn -0.707107 0.000339 -0.707107
vn 0.000000 0.826853 -0.562419
vn 0.000000 0.826853 -0.562419
vn 0.000000 0.826853 -0.562419
vn 0.000000 0.826853 -0.562419
vn 0.707107 0.000000 -0.707107
vn 0.707107 0.000000 -0.707107
vn 0.707107 0.000339 -0.707107
vn 0.707107 0.000339 -0.707107
vn 0.000000 0.000000 1.000000
vn 0.000000 0.000000 1.000000
vn 0.000000 0.000000 1.000000
vn 0.000000 0.000000 1.000000
vn 0.000000 1.000000 0.000000
vn 0.000000 1.000000 0.000000
vn 0.000000 1.000000 0.000000
vn 0.000000 1.000000 0.000000
vn 0.000000 0.000000 -1.000000
vn 0.000000 0.000000 -1.000000
vn 0.000000 0.000000 -1.000000
vn 0.000000 0.000000 -1.000000
vn 1.000000 0.000000 0.000000
vn 1.000000 0.000000 0.000000
vn 1.000000 0.000000 0.000000
vn 1.000000 0.000000 0.000000
vn -1.000000 0.000000 0.000000
vn -1.000000 0.000000 0.000000
vn -1.000000 0.000000 0.000000
vn -1.000000 0.000000 0.000000
vn -0.539283 0.646796 0.539286
vn -0.539283 0.646796 0.539286
vn -0.539283 0.646796 0.539286
vn 0.539283 0.646796 0.539286
vn 0.539283 0.646796 0.539286
vn 0.539283 0.646796 0.539286
vn -0.539283 0.646796 -0.539286
vn -0.539283 0.646796 -0.539285
vn -0.539283 0.646796 -0.539286
vn 0.539283 0.646796 -0.539286
vn 0.539283 0.646796 -0.539286
vn 0.539283 0.646796 -0.539286
vn -0.700216 0.139271 0.700216
vn -0.707107 0.000339 0.707107
vn -0.707107 0.000339 0.707107
vn 0.700215 0.139274 0.700215
vn 0.707107 0.000339 0.707107
vn 0.707107 0.000339 0.707107
vn -0.700215 0.139274 -0.700215
vn -0.707107 0.000339 -0.707107
vn -0.707107 0.000339 -0.707107
vn 0.700216 0.139271 -0.700216
vn 0.707107 0.000339 -0.707107
vn 0.707107 0.000339 -0.707107
vn -0.438232 0.898862 0.000000
vn -0.438233 0.898862 0.000000
vn -0.438233 0.898862 0.000000
vn -0.438232 0.898862 0.000000
vn 0.000000 0.898861 0.438234
vn 0.000000 0.898861 0.438234
vn 0.000000 0.898861 0.438234
vn 0.000000 0.898861 0.438234
vn 0.438233 0.898862 0.000000
vn 0.438232 0.898862 0.000000
vn 0.438232 0.898862 0.000000
vn 0.438233 0.898862 0.000000
vn 0.000000 0.898861 -0.438234
vn 0.000000 0.898861 -0.438234
vn 0.000000 0.898861 -0.438234
vn 0.000000 0.898861 -0.438234
vn 0.000000 0.000000 1.000000
vn 0.000000 0.000000 1.000000
vn 0.000000 0.000000 1.000000
vn 0.000000 0.000000 1.000000
vn 0.000000 1.000000 0.000000
vn 0.000000 1.000000 0.000000
vn 0.000000 1.000000 0.000000
vn 0.000000 1.000000 0.000000
vn 0.000000 0.000000 -1.000000
vn 0.000000 0.000000 -1.000000
vn 0.000000 0.000000 -1.000000
vn 0.000000 0.000000 -1.000000
vn 1.000000 0.000000 0.000000
vn 1.000000 0.000000 0.000000
vn 1.000000 0.000000 0.000000
vn 1.000000 0.000000 0.000000
vn -1.000000 0.000000 0.000000
vn -1.000000 0.000000 0.000000
vn -1.000000 0.000000 0.000000
vn -1.000000 0.000000 0.000000
vn 0.000000 1.000000 0.000000
vn 0.000000 1.000000 0.000000
vn 0.000000 1.000000 0.000000
vn 0.000000 1.000000 0.000000
vn -0.499849 0.866113 0.000000
vn -0.499849 0.866113 0.000000
vn -0.499849 0.866113 0.000000
vn -0.499849 0.866113 0.000000
vn -0.499849 0.866113 0.000000
vn -0.499849 0.866113 0.000000
vn 0.000000 0.866113 -0.499849
vn 0.000000 0.866113 -0.499849
vn 0.000000 0.866113 -0.499849
vn 0.000000 0.866113 -0.499849
vn 0.000000 0.866113 -0.499849
vn 0.000000 0.866113 -0.499849
vn 0.000000 0.866113 0.499849
vn 0.000000 0.866113 0.499849
vn 0.000000 0.866113 0.499849
vn 0.000000 0.866113 0.499849
vn 0.000000 0.866113 0.499849
vn 0.000000 0.866113 0.499849
vn 0.499849 0.866113 0.000000
vn 0.499849 0.866113 0.000000
vn 0.499849 0.866113 0.000000
vn 0.499849 0.866113 0.000000
vn 0.499849 0.866113 0.000000
vn 0.499849 0.866113 0.000000
vn -0.576504 -0.817094 0.000000
vn -0.576504 -0.817094 0.000000
vn -0.576504 -0.817094 0.000000
vn -0.576504 -0.817094 0.000000
vn -0.707107 0.000000 -0.707107
vn -0.707107 0.000000 -0.707107
vn -0.707107 -0.001109 -0.707106
vn -0.707107 -0.001109 -0.707106
vn 0.000000 -0.817094 -0.576504
vn 0.000000 -0.817094 -0.576504
vn 0.000000 -0.817094 -0.576504
vn 0.000000 -0.817094 -0.576504
vn 0.576504 -0.817094 0.000000
vn 0.576504 -0.817094 0.000000
vn 0.576504 -0.817094 0.000000
vn 0.576504 -0.817094 0.000000
vn 0.707107 0.000000 -0.707107
vn 0.707107 0.000000 -0.707107
vn 0.707107 -0.001109 -0.707106
vn 0.707107 -0.001109 -0.707106
vn -0.707107 0.000000 0.707107
vn -0.707107 0.000000 0.707107
vn -0.707106 -0.001109 0.707107
vn -0.707106 -0.001109 0.707107
vn 0.000000 -0.817094 0.576504
vn 0.000000 -0.817094 0.576504
vn 0.000000 -0.817094 0.576504
vn 0.000000 -0.817094 0.576504
vn 0.707107 0.000000 0.707107
vn 0.707107 0.000000 0.707107
vn 0.707106 -0.001109 0.707107
vn 0.707106 -0.001109 0.707107
vn 0.000000 0.000000 -1.000000
vn 0.000000 0.000000 -1.000000
vn 0.000000 0.000000 -1.000000
vn 0.000000 0.000000 -1.000000
vn 0.000000 -1.000000 0.000000
vn 0.000000 -1.000000 0.000000
vn 0.000000 -1.000000 0.000000
vn 0.000000 -1.000000 0.000000
vn 0.000000 0.000000 1.000000
vn 0.000000 0.000000 1.000000
vn 0.000000 0.000000 1.000000
vn 0.000000 0.000000 1.000000
vn 1.000000 0.000000 0.000000
vn 1.000000 0.000000 0.000000
vn 1.000000 0.000000 0.000000
vn 1.000000 0.000000 0.000000
vn -1.000000 0.000000 0.000000
vn -1.000000 0.000000 0.000000
vn -1.000000 0.000000 0.000000
vn -1.000000 0.000000 0.000000
vn -0.499450 -0.707884 -0.499450
vn -0.499450 -0.707884 -0.499450
vn -0.499450 -0.707884 -0.499450
vn 0.499450 -0.707884 -0.499450
vn 0.499450 -0.707884 -0.499450
vn 0.499450 -0.707884 -0.499450
vn -0.499450 -0.707884 0.499450
vn -0.499450 -0.707884 0.499450
vn -0.499450 -0.707884 0.499450
vn 0.499450 -0.707884 0.499450
vn 0.499450 -0.707884 0.499450
vn 0.499450 -0.707884 0.499450
vn -0.693878 -0.192520 -0.693880
vn -0.707107 -0.001109 -0.707106
vn -0.707107 -0.001109 -0.707106
vn 0.693878 -0.192520 -0.693880
vn 0.707107 -0.001109 -0.707106
vn 0.707107 -0.001109 -0.707106
vn -0.693879 -0.192520 0.693879
vn -0.707106 -0.001109 0.707107
vn -0.707106 -0.001109 0.707107
vn 0.693879 -0.192520 0.693879
vn 0.707106 -0.001109 0.707107
vn 0.707106 -0.001109 0.707107
vn 0.000000 0.000000 1.000000
vn 0.000000 0.000000 1.000000
vn 0.000000 0.000000 1.000000
vn 0.000000 0.000000 1.000000
vn -1.000000 0.000000 0.000000
vn -1.000000 0.000000 0.000000
vn -1.000000 0.000000 0.000000
vn -1.000000 0.000000 0.000000
vn 0.000000 0.000000 -1.000000
vn 0.000000 0.000000 -1.000000
vn 0.000000 0.000000 -1.000000
vn 0.000000 0.000000 -1.000000
vn 1.000000 0.000000 0.000000
vn 1.000000 0.000000 0.000000
vn 1.000000 0.000000 0.000000
vn 1.000000 0.000000 0.000000
vn 0.000000 -0.861258 0.508168
vn 0.000000 -0.861258 0.508168
vn 0.000000 -0.861258 0.508168
vn 0.000000 -0.861258 0.508168
vn -0.508168 -0.861258 0.000000
vn -0.508168 -0.861258 0.000000
vn -0.508168 -0.861258 0.000000
vn -0.508168 -0.861258 0.000000
vn 0.508168 -0.861258 0.000000
vn 0.508168 -0.861258 0.000000
vn 0.508168 -0.861258 0.000000
vn 0.508168 -0.861258 0.000000
vn 0.000000 -0.861258 -0.508168
vn 0.000000 -0.861258 -0.508168
vn 0.000000 -0.861258 -0.508168
vn 0.000000 -0.861258 -0.508168
vn 0.000000 0.000000 1.000000
vn 0.000000 0.000000 1.000000
vn 0.000000 0.000000 1.000000
vn 0.000000 0.000000 1.000000
vn 0.000000 0.000000 -1.000000
vn 0.000000 0.000000 -1.000000
vn 0.000000 0.000000 -1.000000
vn 0.000000 0.000000 -1.000000
vn 1.000000 0.000000 0.000000
vn 1.000000 0.000000 0.000000
vn 1.000000 0.000000 0.000000
vn 1.000000 0.000000 0.000000
vn -1.000000 0.000000 0.000000
vn -1.000000 0.000000 0.000000
vn -1.000000 0.000000 0.000000
vn -1.000000 0.000000 0.000000
vn 0.000000 -1.000000 0.000000
vn 0.000000 -1.000000 0.000000
vn 0.000000 -1.000000 0.000000
vn 0.000000 -1.000000 0.000000
vn 0.000000 -1.000000 0.000000
vn 0.000000 -1.000000 0.000000
vn 0.000000 -1.000000 0.000000
vn 0.000000 -1.000000 0.000000
vn 0.000000 -1.000000 0.000000
vn 0.000000 -1.000000 0.000000
vn 0.000000 -1.000000 0.000000
vn 0.000000 -1.000000 0.000000
vn 0.000000 -1.000000 0.000000
vn 0.000000 -1.000000 0.000000
vn 0.000000 -1.000000 0.000000
vn 0.000000 -1.000000 0.000000
vn 0.000000 0.000000 1.000000
vn 0.000000 0.000000 1.000000
vn 0.000000 -0.349964 0.936763
vn 0.000000 -0.349964 0.936763
vn 0.000000 1.000000 0.000000
vn 0.000000 1.000000 0.000000
vn 0.000000 1.000000 0.000000
vn 0.000000 1.000000 0.000000
vn 0.000000 -0.349964 -0.936763
vn 0.000000 -0.349964 -0.936763
vn 0.000000 0.000000 -1.000000
vn 0.000000 0.000000 -1.000000
vn 0.000000 -1.000000 0.000000
vn 0.000000 -1.000000 0.000000
vn 0.000000 -1.000000 0.000000
vn 0.000000 -1.000000 0.000000
vn 1.000000 0.000000 0.000000
vn 1.000000 0.000000 0.000000
vn 0.936763 -0.349964 0.000000
vn 0.936763 -0.349964 0.000000
vn -1.000000 0.000000 0.000000
vn -1.000000 0.000000 0.000000
vn -0.936763 -0.349964 0.000000
vn -0.936763 -0.349964 0.000000
vn 0.000000 0.304787 0.952420
vn 0.000000 0.304787 0.952420
vn 0.000000 0.000000 1.000000
vn 0.000000 0.000000 1.000000
vn -0.952420 0.304787 0.000000
vn -0.952420 0.304787 0.000000
vn -1.000000 0.000000 0.000000
vn -1.000000 0.000000 0.000000
vn 0.000000 0.000000 -1.000000
vn 0.000000 0.000000 -1.000000
vn 0.000000 0.304787 -0.952420
vn 0.000000 0.304787 -0.952420
vn 0.952420 0.304787 0.000000
vn 0.952420 0.304787 0.000000
vn 1.000000 0.000000 0.000000
vn 1.000000 0.000000 0.000000
vn 0.000000 0.000000 1.000000
vn 0.000000 0.000000 1.000000
vn 0.000000 0.000000 1.000000
vn 0.000000 0.000000 1.000000
vn -1.000000 0.000000 0.000000
vn -1.000000 0.000000 0.000000
vn -1.000000 0.000000 0.000000
vn -1.000000 0.000000 0.000000
vn 0.000000 0.000000 -1.000000
vn 0.000000 0.000000 -1.000000
vn 0.000000 0.000000 -1.000000
vn 0.000000 0.000000 -1.000000
vn 1.000000 0.000000 0.000000
vn 1.000000 0.000000 0.000000
vn 1.000000 0.000000 0.000000
vn 1.000000 0.000000 0.000000
vn 0.707107 0.000000 0.707107
vn 0.707107 0.000000 0.707107
vn 0.707107 0.000000 0.707107
vn 0.707107 0.000000 0.707107
vn -0.707107 0.000000 0.707107
vn -0.707107 0.000000 0.707107
vn -0.707107 0.000000 0.707107
vn -0.707107 0.000000 0.707107
vn -0.707107 0.000000 -0.707107
vn -0.707107 0.000000 -0.707107
vn -0.707107 0.000000 -0.707107
vn -0.707107 0.000000 -0.707107
vn 0.707107 0.000000 -0.707107
vn 0.707107 0.000000 -0.707107
vn 0.707107 0.000000 -0.707107
vn 0.707107 0.000000 -0.707107
s off
f 1/1/1 2/2/2 3/3/3 4/4/4
f 17/5/5 19/6/6 24/7/7 23/8/8 1/1/9 4/4/10
f 20/9/11 22/10/12 18/11/13 17/5/14 4/4/15 3/3/16
f 23/8/17 25/12/18 27/13/19 26/14/20 2/2/21 1/1/22
f 26/14/23 28/15/24 21/16/25 20/9/26 3/3/27 2/2/28
f 5/17/29 7/18/30 12/19/31 11/20/32
f 6/21/33 5/17/34 19/22/35 18/23/36
f 7/24/37 6/25/38 9/26/39 8/27/40
f 8/28/41 10/29/42 16/30/43 15/31/44
f 10/29/45 9/32/46 22/33/47 21/34/48
f 11/20/49 13/35/50 25/36/51 24/37/52
f 13/38/53 12/39/54 15/40/55 14/41/56
f 14/42/57 16/30/58 28/43/59 27/44/60
f 6/25/61 18/45/62 22/46/63 9/26/64
f 7/47/65 8/48/66 15/49/67 12/50/68
f 13/38/69 14/41/70 27/51/71 25/52/72
f 10/29/73 21/34/74 28/43/75 16/30/76
f 11/20/77 24/37/78 19/22/79 5/17/80
f 5/17/81 6/53/82 7/18/83
f 8/28/84 9/54/85 10/29/86
f 11/20/87 12/19/88 13/55/89
f 14/56/90 15/31/91 16/30/92
f 17/57/93 18/23/94 19/22/95
f 20/58/96 21/34/97 22/33/98
f 23/59/99 24/37/100 25/36/101
f 26/60/102 27/44/103 28/43/104
f 33/61/105 34/62/106 37/63/107 38/64/108
f 34/62/109 33/61/110 36/65/111 35/66/112
f 35/66/113 36/65/114 40/67/115 39/68/116
f 38/64/117 37/63/118 39/68/119 40/67/120
f 29/69/121 30/70/122 36/71/123 33/72/124
f 34/62/125 35/66/126 39/68/127 37/63/128
f 38/73/129 40/74/130 32/75/131 31/76/132
f 30/77/133 32/78/134 40/79/135 36/80/136
f 31/81/137 29/82/138 33/83/139 38/84/140
f 41/85/141 42/86/142 43/87/143 44/88/144
f 57/89/145 59/90/146 64/91/147 63/92/148 41/85/149 44/88/150
f 60/93/151 62/94/152 58/95/153 57/89/154 44/88/155 43/87/156
f 63/92/157 65/96/158 67/97/159 66/98/160 42/86/161 41/85/162
f 66/98/163 68/99/164 61/100/165 60/93/166 43/87/167 42/86/168
f 45/101/169 47/102/170 52/103/171 51/104/172
f 46/105/173 45/106/174 59/107/175 58/108/176
f 47/102/177 46/109/178 49/110/179 48/111/180
f 48/111/181 50/112/182 56/113/183 55/114/184
f 50/115/185 49/116/186 62/117/187 61/118/188
f 51/119/189 53/120/190 65/121/191 64/122/192
f 53/123/193 52/103/194 55/114/195 54/124/196
f 54/125/197 56/126/198 68/127/199 67/128/200
f 46/129/201 58/130/202 62/131/203 49/132/204
f 47/102/205 48/111/206 55/114/207 52/103/208
f 53/133/209 54/134/210 67/135/211 65/136/212
f 50/115/213 61/118/214 68/127/215 56/126/216
f 51/119/217 64/122/218 59/107/219 45/106/220
f 45/101/221 46/109/222 47/102/223
f 48/111/224 49/110/225 50/112/226
f 51/104/227 52/103/228 53/123/229
f 54/124/230 55/114/231 56/113/232
f 57/137/233 58/108/234 59/107/235
f 60/138/236 61/118/237 62/117/238
f 63/139/239 64/122/240 65/121/241
f 66/140/242 67/128/243 68/127/244
f 73/141/245 74/142/246 78/143/247 77/144/248
f 74/142/249 75/145/250 79/146/251 78/143/252
f 75/145/253 76/147/254 80/148/255 79/146/256
f 76/147/257 73/141/258 77/144/259 80/148/260
f 81/149/261 82/150/262 84/151/263 83/152/264
f 82/150/265 81/149/266 85/153/267 86/154/268
f 83/152/269 84/151/270 88/155/271 87/156/272
f 86/154/273 85/153/274 87/156/275 88/155/276
f 81/157/277 83/158/278 70/159/279 69/160/280
f 71/161/281 72/162/282 87/163/283 85/164/284
f 83/165/285 87/166/286 72/167/287 70/168/288
f 85/169/289 81/170/290 69/171/291 71/172/292
f 86/154/293 88/155/294 74/142/295 73/141/296
f 88/155/297 84/151/298 75/145/299 74/142/300
f 84/151/301 82/150/302 76/147/303 75/145/304
f 82/150/305 86/154/306 73/141/307 76/147/308
f 89/173/309 90/174/310 101/206/311 102/175/312
f 91/176/313 92/177/314 94/178/315 93/179/316
f 103/214/317 104/180/318 96/181/319 95/182/320
f 95/183/321 96/184/322 90/185/323 89/186/324
f 90/187/325 96/188/326 104/215/327 101/189/328
f 95/190/329 89/191/330 102/209/331 103/192/332
f 98/205/333 97/193/334 92/194/335 91/195/336
f 99/208/337 98/196/338 91/197/339 93/198/340
f 93/199/341 94/200/342 100/210/343 99/201/344
f 97/213/345 100/202/346 94/203/347 92/204/348
f 109/222/349 111/232/350 108/221/351 106/236/352
f 113/225/353 115/233/354 112/217/355 110/207/356
f 116/218/357 114/211/358 117/228/359 119/234/360
f 105/219/361 107/216/362 120/220/363 118/212/364
f 105/219/365 106/231/366 108/235/367 107/216/368
f 109/222/369 110/223/370 112/224/371 111/232/372
f 113/225/373 114/226/374 116/227/375 115/233/376
f 117/228/377 118/229/378 120/230/379 119/234/380
