# This file uses centimeters as units for non-parametric coordinates.

v 0.718618 -0.718618 -0.956628
v 0.718617 0.718618 -0.956628
v -0.718618 0.718618 -0.956628
v -0.718618 -0.718618 -0.956628
v -0.780924 -0.718618 -0.976121
v -0.780924 0.718618 -0.976121
v -0.780924 0.718618 -1.425778
v -0.780924 -0.718618 -1.425779
v 0.718618 0.780924 -1.425778
v -0.718618 0.780924 -1.425778
v -0.718618 0.780924 -0.976121
v 0.718617 0.780924 -0.976121
v 0.780924 -0.718618 -1.425779
v 0.780924 0.718618 -1.425778
v 0.780923 0.718618 -0.976121
v 0.780924 -0.718618 -0.976121
v 0.718618 -0.780924 -1.425779
v 0.718618 -0.780924 -0.976121
v -0.718618 -0.780924 -0.976121
v -0.718617 -0.780924 -1.425779
v 0.795725 0.795725 -1.766888
v 0.795725 -0.795725 -1.766888
v -0.795725 -0.795725 -1.766888
v -0.795725 0.795725 -1.766888
v 0.795725 -0.795725 -1.171605
v 0.795725 0.795725 -1.171604
v -0.795725 0.795725 -1.171605
v -0.795725 -0.795725 -1.171605
v -0.864717 -0.795725 -1.195352
v -0.864717 0.795725 -1.195352
v -0.864717 0.795725 -1.743140
v -0.864717 -0.795725 -1.743141
v 0.795725 0.864717 -1.743140
v -0.795725 0.864717 -1.743140
v -0.795725 0.864717 -1.195352
v 0.795725 0.864717 -1.195352
v 0.864717 -0.795725 -1.743141
v 0.864717 0.795725 -1.743140
v 0.864716 0.795725 -1.195352
v 0.864717 -0.795725 -1.195352
v 0.795725 -0.864717 -1.743141
v 0.795725 -0.864717 -1.195352
v -0.795725 -0.864717 -1.195352
v -0.795725 -0.864717 -1.743141
vt 0.550982 0.958991
vt 0.550996 0.041911
vt 0.962704 0.041903
vt 0.962704 0.959091
vt 0.550982 0.958991
vt 0.550996 0.041911
vt 0.962704 0.041903
vt 0.962704 0.959091
vt 0.550996 0.041911
vt 0.550982 0.958991
vt 0.962704 0.041903
vt 0.962704 0.959091
vt 0.550982 0.958991
vt 0.550996 0.041911
vt 0.550985 0.999161
vt 0.514223 0.959184
vt 0.962702 0.996385
vt 0.997439 0.959327
vt 0.551002 0.003893
vt 0.517209 0.041913
vt 0.962702 0.001798
vt 0.996088 0.041901
vt 0.551002 0.003893
vt 0.962702 0.001798
vt 0.962702 0.996385
vt 0.550985 0.999161
vt 0.962702 0.996385
vt 0.550985 0.999161
vt 0.551002 0.003893
vt 0.962702 0.001798
vt 0.040532 0.052661
vt 0.449890 0.052590
vt 0.450639 0.949457
vt 0.040665 0.950197
vt 0.040674 0.950197
vt 0.040656 0.052661
vt 0.450639 0.949457
vt 0.301820 0.950247
vt 0.301820 0.052877
vt 0.449890 0.052588
vt 0.450639 0.949457
vt 0.450176 0.052820
vt 0.450635 0.949457
vt 0.301820 0.950247
vt 0.301820 0.052875
vt 0.449881 0.052589
vt 0.450639 0.949457
vt 0.301820 0.950247
vt 0.301820 0.052877
vt 0.449868 0.000000
vt 0.500959 0.052133
vt 0.040869 1.000000
vt 0.001854 0.949955
vt 0.450404 0.997185
vt 0.503572 0.949532
vt 0.503572 0.949532
vt 0.041574 0.002815
vt 0.001509 0.052883
vt 0.041617 0.002815
vt 0.001537 0.052883
vt 0.040871 1.000000
vt 0.001741 0.949955
vt 0.301834 0.001577
vt 0.449117 0.001217
vt 0.453441 0.996171
vt 0.301834 0.997670
vt 0.453017 0.995407
vt 0.301834 0.996881
vt 0.301834 0.001267
vt 0.449119 0.001179
vt 0.450655 0.949465
vt 0.450343 0.052609
vt 0.962704 0.041903
vt 0.962704 0.959091
vt 0.551002 0.003893
vt 0.962702 0.001798
vt 0.962702 0.996385
vt 0.550985 0.999163
vt 0.449890 0.052590
vt 0.450404 0.997185
vt 0.449868 0.000000
vt 0.500959 0.052133
vt 0.449890 0.052590
vt 0.449890 0.052590
vt 0.500959 0.052133
vt 0.450404 0.997185
vt 0.449868 0.000000
vt 0.449890 0.052590
vt 0.301820 0.950246
vt 0.301820 0.052879
vn 0.000000 0.000000 1.000000
vn 0.000000 0.000000 1.000000
vn 0.000000 0.000000 1.000000
vn 0.000000 0.000000 1.000000
vn -1.000000 0.000000 0.000000
vn -1.000000 0.000000 0.000000
vn -1.000000 0.000000 0.000000
vn -1.000000 0.000000 0.000000
vn 0.000000 1.000000 -0.000000
vn 0.000000 1.000000 -0.000000
vn 0.000000 1.000000 -0.000000
vn 0.000000 1.000000 -0.000000
vn 1.000000 0.000000 0.000001
vn 1.000000 0.000000 0.000001
vn 1.000000 0.000000 0.000001
vn 1.000000 0.000000 0.000001
vn 0.286104 -0.286105 0.914488
vn 0.286104 -0.286105 0.914488
vn 0.286104 -0.286105 0.914488
vn -0.286104 -0.286105 0.914488
vn -0.286104 -0.286105 0.914488
vn -0.286104 -0.286105 0.914488
vn 0.286104 0.286105 0.914488
vn 0.286104 0.286105 0.914488
vn 0.286104 0.286105 0.914488
vn -0.286104 0.286105 0.914488
vn -0.286104 0.286105 0.914488
vn -0.286104 0.286105 0.914488
vn 0.707107 -0.707107 0.000000
vn 0.707107 -0.707107 0.000000
vn 0.707107 -0.707107 0.000000
vn 0.707107 -0.707107 0.000000
vn 0.000000 -0.298587 0.954382
vn 0.000000 -0.298587 0.954382
vn 0.000000 -0.298587 0.954382
vn 0.000000 -0.298587 0.954382
vn 0.298587 0.000000 0.954383
vn 0.298586 0.000000 0.954383
vn 0.298587 0.000000 0.954383
vn 0.298586 0.000000 0.954383
vn -0.707104 -0.707110 -0.000001
vn -0.707104 -0.707110 -0.000001
vn -0.707104 -0.707110 -0.000001
vn -0.707104 -0.707110 -0.000001
vn -0.298586 0.000000 0.954383
vn -0.298586 0.000000 0.954383
vn -0.298586 0.000000 0.954383
vn -0.298586 0.000000 0.954383
vn 0.707107 0.707106 0.000002
vn 0.707107 0.707106 0.000002
vn 0.707107 0.707106 0.000002
vn 0.707107 0.707106 0.000002
vn 0.000000 0.298587 0.954382
vn 0.000000 0.298587 0.954382
vn 0.000000 0.298587 0.954382
vn 0.000000 0.298587 0.954382
vn -0.707107 0.707107 0.000000
vn -0.707107 0.707107 0.000000
vn -0.707107 0.707107 0.000000
vn -0.707107 0.707107 0.000000
vn 0.000000 -1.000000 0.000000
vn 0.000000 -1.000000 0.000000
vn 0.000000 -1.000000 0.000000
vn 0.000000 -1.000000 0.000000
vn 0.000000 0.000000 -1.000000
vn 0.000000 0.000000 -1.000000
vn 0.000000 0.000000 -1.000000
vn 0.000000 0.000000 -1.000000
vn -0.000000 -0.000000 1.000000
vn -0.000000 -0.000000 1.000000
vn -0.000000 -0.000000 1.000000
vn -0.000000 -0.000000 1.000000
vn -1.000000 0.000000 0.000000
vn -1.000000 0.000000 0.000000
vn -1.000000 0.000000 0.000000
vn -1.000000 0.000000 0.000000
vn 0.000000 1.000000 0.000000
vn 0.000000 1.000000 0.000000
vn 0.000000 1.000000 0.000000
vn 0.000000 1.000000 0.000000
vn 1.000000 0.000000 0.000001
vn 1.000000 0.000000 0.000001
vn 1.000000 0.000000 0.000001
vn 1.000000 0.000000 0.000001
vn 0.309481 -0.309481 -0.899135
vn 0.309481 -0.309481 -0.899134
vn 0.309481 -0.309481 -0.899134
vn 0.309481 -0.309481 0.899134
vn 0.309481 -0.309481 0.899134
vn 0.309481 -0.309481 0.899135
vn -0.309481 -0.309481 0.899134
vn -0.309481 -0.309481 0.899135
vn -0.309481 -0.309481 0.899134
vn -0.309481 -0.309481 -0.899134
vn -0.309481 -0.309481 -0.899135
vn -0.309481 -0.309481 -0.899134
vn 0.309490 0.309492 -0.899128
vn 0.309490 0.309492 -0.899128
vn 0.309490 0.309492 -0.899128
vn 0.309497 0.309490 0.899126
vn 0.309497 0.309490 0.899126
vn 0.309497 0.309490 0.899126
vn -0.309481 0.309481 0.899134
vn -0.309481 0.309481 0.899134
vn -0.309481 0.309481 0.899135
vn -0.309490 0.309492 -0.899128
vn -0.309490 0.309492 -0.899128
vn -0.309490 0.309492 -0.899128
vn 0.707107 -0.707107 0.000000
vn 0.707107 -0.707107 0.000000
vn 0.707107 -0.707107 0.000000
vn 0.707107 -0.707107 0.000000
vn 0.000000 -0.325459 -0.945556
vn 0.000000 -0.325459 -0.945556
vn 0.000000 -0.325459 -0.945556
vn 0.000000 -0.325459 -0.945556
vn 0.325467 0.000000 -0.945553
vn 0.325467 0.000000 -0.945553
vn 0.325467 0.000000 -0.945553
vn 0.325467 0.000000 -0.945553
vn 0.000000 -0.325459 0.945556
vn 0.000000 -0.325459 0.945556
vn 0.000000 -0.325459 0.945556
vn 0.000000 -0.325459 0.945556
vn 0.325467 -0.000000 0.945553
vn 0.325467 -0.000000 0.945554
vn 0.325467 -0.000000 0.945553
vn 0.325467 -0.000000 0.945554
vn -0.707107 -0.707107 0.000000
vn -0.707107 -0.707107 0.000000
vn -0.707107 -0.707107 0.000000
vn -0.707107 -0.707107 0.000000
vn -0.325459 0.000000 0.945556
vn -0.325459 0.000000 0.945556
vn -0.325459 0.000000 0.945556
vn -0.325459 0.000000 0.945556
vn -0.325467 0.000000 -0.945553
vn -0.325467 0.000000 -0.945553
vn -0.325467 0.000000 -0.945553
vn -0.325467 0.000000 -0.945553
vn 0.707109 0.707104 0.000001
vn 0.707109 0.707104 0.000001
vn 0.707109 0.707104 0.000001
vn 0.707109 0.707104 0.000001
vn 0.000000 0.325472 -0.945552
vn 0.000000 0.325472 -0.945552
vn 0.000000 0.325472 -0.945552
vn 0.000000 0.325472 -0.945552
vn -0.000000 0.325465 0.945554
vn -0.000000 0.325465 0.945554
vn -0.000000 0.325465 0.945554
vn -0.000000 0.325465 0.945554
vn -0.707107 0.707107 0.000000
vn -0.707107 0.707107 0.000000
vn -0.707107 0.707107 0.000000
vn -0.707107 0.707107 0.000000
vn 0.000000 -1.000000 0.000000
vn 0.000000 -1.000000 0.000000
vn 0.000000 -1.000000 0.000000
vn 0.000000 -1.000000 0.000000
s off
f 1/1/1 2/2/2 3/3/3 4/4/4
f 5/5/5 6/6/6 7/7/7 8/8/8
f 9/9/9 10/73/10 11/74/11 12/10/12
f 13/11/13 14/12/14 15/13/15 16/14/16
f 18/15/17 16/16/18 1/1/19
f 19/17/20 4/4/21 5/18/22
f 12/19/23 2/2/24 15/20/25
f 11/21/26 6/22/27 3/3/28
f 13/11/29 16/14/30 18/23/31 17/24/32
f 1/1/33 4/4/34 19/17/35 18/15/36
f 16/16/37 15/20/38 2/2/39 1/1/40
f 5/5/41 8/8/42 20/25/43 19/26/44
f 4/4/45 3/3/46 6/22/47 5/18/48
f 9/27/49 12/28/50 15/13/51 14/12/52
f 12/19/53 11/21/54 3/3/55 2/2/56
f 11/29/57 10/30/58 7/7/59 6/6/60
f 17/75/61 18/76/62 19/77/63 20/78/64
f 21/31/65 22/32/66 23/33/67 24/34/68
f 25/35/69 26/36/70 27/79/71 28/37/72
f 29/38/73 30/39/74 31/40/75 32/41/76
f 33/42/77 34/43/78 35/44/79 36/45/80
f 37/46/81 38/47/82 39/48/83 40/49/84
f 22/32/85 37/50/86 41/51/87
f 42/52/88 40/53/89 25/35/90
f 43/54/91 28/37/92 29/55/93
f 32/80/94 23/33/95 44/56/96
f 38/57/97 21/31/98 33/58/99
f 36/59/100 26/36/101 39/60/102
f 35/81/103 30/82/104 27/83/105
f 24/34/106 31/61/107 34/62/108
f 37/46/109 40/49/110 42/63/111 41/64/112
f 41/51/113 44/56/114 23/33/115 22/32/116
f 22/32/117 21/31/118 38/57/119 37/50/120
f 25/35/121 28/37/122 43/54/123 42/52/124
f 40/53/125 39/60/126 26/36/127 25/35/128
f 29/38/129 32/41/130 44/65/131 43/66/132
f 28/37/133 27/84/134 30/85/135 29/55/136
f 32/86/137 31/61/138 24/34/139 23/33/140
f 33/67/141 36/68/142 39/48/143 38/47/144
f 21/31/145 24/34/146 34/62/147 33/58/148
f 36/59/149 35/87/150 27/88/151 26/36/152
f 35/69/153 34/70/154 31/40/155 30/39/156
f 41/71/157 42/89/158 43/90/159 44/72/160
v 0.309572 -0.309572 0.036432
v 0.309572 0.309572 0.036432
v -0.309572 0.309572 0.036432
v -0.309572 -0.309572 0.036432
v -0.336413 -0.309572 0.000260
v -0.336413 0.309572 0.000260
v -0.336413 0.309572 -1.034179
v -0.336413 -0.309572 -1.034181
v 0.309572 0.336413 -1.034179
v -0.309572 0.336413 -1.034179
v -0.309572 0.336413 0.000260
v 0.309572 0.336413 0.000260
v 0.336413 -0.309572 -1.034181
v 0.336413 0.309572 -1.034179
v 0.336412 0.309572 0.000260
v 0.336413 -0.309572 0.000260
v 0.309572 -0.336413 -1.034181
v 0.309572 -0.336413 0.000260
v -0.309572 -0.336413 0.000260
v -0.309572 -0.336413 -1.034181
vt 0.550985 0.958956
vt 0.550999 0.041911
vt 0.962704 0.041904
vt 0.962704 0.959092
vt 0.550985 0.958956
vt 0.550999 0.041911
vt 0.962704 0.041904
vt 0.962704 0.959092
vt 0.550999 0.041911
vt 0.550985 0.958956
vt 0.962704 0.041904
vt 0.962704 0.959092
vt 0.550985 0.958956
vt 0.550999 0.041911
vt 0.550991 0.999251
vt 0.514384 0.959178
vt 0.962702 0.996387
vt 0.997439 0.959329
vt 0.551004 0.003863
vt 0.517209 0.041913
vt 0.962702 0.001792
vt 0.996088 0.041899
vt 0.551004 0.003887
vt 0.962702 0.001795
vt 0.962702 0.996386
vt 0.550991 0.999284
vt 0.962702 0.996384
vt 0.550990 0.999265
vt 0.551004 0.003875
vt 0.962702 0.001793
vt 0.962704 0.041904
vt 0.962704 0.959092
vt 0.550999 0.041911
vt 0.962704 0.041904
vt 0.962704 0.959092
vt 0.550985 0.958956
vn 0.000000 0.000000 1.000000
vn 0.000000 0.000000 1.000000
vn 0.000000 0.000000 1.000000
vn 0.000000 0.000000 1.000000
vn -1.000000 0.000000 0.000000
vn -1.000000 0.000000 0.000000
vn -1.000000 0.000000 0.000000
vn -1.000000 0.000000 0.000000
vn 0.000000 1.000000 -0.000000
vn 0.000000 1.000000 -0.000000
vn 0.000000 1.000000 -0.000000
vn 0.000000 1.000000 -0.000000
vn 1.000000 0.000000 0.000000
vn 1.000000 0.000000 0.000000
vn 1.000000 0.000000 0.000000
vn 1.000000 0.000000 0.000000
vn 0.626148 -0.626148 0.464627
vn 0.626148 -0.626148 0.464627
vn 0.626148 -0.626148 0.464627
vn -0.626148 -0.626148 0.464627
vn -0.626148 -0.626148 0.464627
vn -0.626148 -0.626148 0.464627
vn 0.626148 0.626147 0.464627
vn 0.626148 0.626147 0.464627
vn 0.626148 0.626147 0.464627
vn -0.626148 0.626148 0.464627
vn -0.626148 0.626148 0.464627
vn -0.626148 0.626148 0.464627
vn 0.707107 -0.707107 0.000000
vn 0.707107 -0.707107 0.000000
vn 0.707107 -0.707107 0.000000
vn 0.707107 -0.707107 0.000000
vn 0.000000 -0.803058 0.595901
vn 0.000000 -0.803058 0.595901
vn 0.000000 -0.803058 0.595901
vn 0.000000 -0.803058 0.595901
vn 0.803058 0.000001 0.595901
vn 0.803058 0.000001 0.595901
vn 0.803058 0.000001 0.595901
vn 0.803058 0.000001 0.595901
vn -0.707104 -0.707109 -0.000000
vn -0.707104 -0.707109 -0.000000
vn -0.707104 -0.707109 -0.000000
vn -0.707104 -0.707109 -0.000000
vn -0.803058 0.000000 0.595901
vn -0.803058 0.000000 0.595901
vn -0.803058 0.000000 0.595901
vn -0.803058 0.000000 0.595901
vn 0.707107 0.707107 0.000000
vn 0.707107 0.707107 0.000000
vn 0.707107 0.707107 0.000000
vn 0.707107 0.707107 0.000000
vn 0.000000 0.803058 0.595901
vn 0.000000 0.803058 0.595901
vn 0.000000 0.803058 0.595901
vn 0.000000 0.803058 0.595901
vn -0.707107 0.707107 0.000000
vn -0.707107 0.707107 0.000000
vn -0.707107 0.707107 0.000000
vn -0.707107 0.707107 0.000000
vn 0.000000 -1.000000 0.000000
vn 0.000000 -1.000000 0.000000
vn 0.000000 -1.000000 0.000000
vn 0.000000 -1.000000 0.000000
s off
f 45/91/161 46/92/162 47/93/163 48/94/164
f 49/95/165 50/96/166 51/97/167 52/98/168
f 53/99/169 54/121/170 55/122/171 56/100/172
f 57/101/173 58/102/174 59/103/175 60/104/176
f 62/105/177 60/106/178 45/91/179
f 63/107/180 48/94/181 49/108/182
f 56/109/183 46/92/184 59/110/185
f 55/111/186 50/112/187 47/93/188
f 57/101/189 60/104/190 62/113/191 61/114/192
f 45/91/193 48/94/194 63/107/195 62/105/196
f 60/106/197 59/110/198 46/92/199 45/91/200
f 49/95/201 52/98/202 64/115/203 63/116/204
f 48/94/205 47/93/206 50/112/207 49/108/208
f 53/117/209 56/118/210 59/103/211 58/102/212
f 56/109/213 55/111/214 47/93/215 46/92/216
f 55/119/217 54/120/218 51/97/219 50/96/220
f 61/123/221 62/124/222 63/125/223 64/126/224
