# This file uses centimeters as units for non-parametric coordinates.

mtllib blade.mtl
v -0.262253 -0.752815 0.112489
v -0.262253 -0.752815 -0.112489
v -0.262253 -1.517193 -0.112489
v -0.262253 -1.517193 0.112489
v 0.262253 -0.752815 -0.112489
v 0.262253 -1.517193 -0.112489
v 0.262253 -0.752815 0.112489
v 0.262253 -1.517193 0.112489
v 0.000000 0.831200 0.192286
v -0.943412 0.831200 0.010881
v -0.943412 -0.804993 0.010881
v 0.000000 -0.804993 0.192286
v 0.000000 -0.905029 0.133606
v 0.000000 -0.905029 -0.133606
v 0.694831 -0.905029 0.000000
v -0.943412 5.736915 -0.010881
v 0.000000 5.797968 -0.192286
v 0.000000 4.177475 -0.192286
v -0.943335 4.177475 -0.010896
v -0.943412 0.831200 -0.010881
v 0.000000 0.831200 -0.192286
v 0.000000 -0.804993 -0.192286
v -0.943412 -0.804993 -0.010881
v 0.000000 5.898002 0.133606
v 0.000000 5.898002 -0.133606
v -0.694831 5.836948 0.000000
v 0.943387 0.831200 0.010886
v 0.943412 -0.804993 0.010881
v 0.943387 0.831200 -0.010886
v 0.943412 -0.804993 -0.010881
v 0.943412 5.736915 0.010881
v 0.000000 5.797968 0.192286
v 0.000000 4.177475 0.192286
v 0.943412 4.177475 0.010881
v -0.943412 5.736915 0.010881
v -0.943335 4.177475 0.010896
v 0.694831 5.836948 0.000000
v 0.000000 3.697390 -0.192286
v -0.769512 3.697390 -0.015782
v 0.943412 5.736915 -0.010881
v 0.943412 4.177475 -0.010881
v 0.943412 3.697390 -0.010881
v 0.943412 3.631569 -0.010881
v 0.000000 3.631569 -0.192286
v -0.896727 3.631569 -0.011218
v 0.000000 1.363271 -0.192286
v -0.943412 1.363271 -0.010881
v 0.000000 3.697390 0.192286
v 0.943412 3.697390 0.010881
v -0.814447 3.697390 0.015782
v -0.941662 3.631569 0.011218
v 0.000000 3.631569 0.192286
v 0.943412 3.631569 0.010881
v -0.943412 1.363271 0.010881
v 0.000000 1.363271 0.192286
v 0.942651 1.363271 0.011027
v 0.000000 1.293262 -0.192286
v -0.943412 1.293262 -0.010881
v 0.942651 1.363271 -0.011027
v 0.874548 1.293262 -0.013081
v 0.874548 1.293262 0.013081
v 0.000000 1.293262 0.192286
v -0.943412 1.293262 0.010881
v -0.694831 -0.905029 0.000000
vt 0.928664 0.171557
vt 0.980431 0.171557
vt 0.980431 0.257337
vt 0.928664 0.257337
vt 0.988973 0.085778
vt 0.868285 0.085779
vt 0.868285 0.000001
vt 0.988973 0.000000
vt 0.980437 0.410471
vt 0.928671 0.410472
vt 0.928670 0.324703
vt 0.980437 0.324703
vt 0.988965 0.171557
vt 0.868285 0.171545
vt 0.980431 0.316199
vt 0.928664 0.316199
vt 0.980437 0.468170
vt 0.928670 0.468170
vt 0.216578 0.255553
vt 0.000000 0.255156
vt 0.000000 0.014717
vt 0.216578 0.015114
vt 0.868285 0.245299
vt 0.928664 0.250961
vt 0.868285 0.324703
vt 0.868278 0.976266
vt 0.651137 0.985114
vt 0.651137 0.746947
vt 0.868260 0.747072
vt 0.868277 0.255262
vt 0.651137 0.255137
vt 0.651136 0.014662
vt 0.868277 0.014787
vt 0.868285 0.398691
vt 0.928670 0.404337
vt 0.869655 0.474840
vt 0.434119 0.255201
vt 0.434124 0.014762
vt 0.434130 0.255264
vt 0.434124 0.976097
vt 0.216578 0.985421
vt 0.216578 0.747289
vt 0.434124 0.746937
vt 0.000000 0.976052
vt 0.000018 0.746892
vt 0.651137 0.676387
vt 0.828262 0.676509
vt 0.434125 0.976268
vt 0.434125 0.747074
vt 0.434125 0.676515
vt 0.434125 0.666841
vt 0.651137 0.666714
vt 0.857535 0.666838
vt 0.651137 0.333337
vt 0.868277 0.333462
vt 0.216578 0.676741
vt 0.434124 0.676388
vt 0.029660 0.676356
vt 0.000402 0.666671
vt 0.216578 0.667068
vt 0.434124 0.666716
vt 0.000000 0.333344
vt 0.216578 0.333741
vt 0.433949 0.333389
vt 0.651137 0.323047
vt 0.868277 0.323172
vt 0.434300 0.333464
vt 0.449969 0.323173
vt 0.418274 0.323104
vt 0.216578 0.323453
vt 0.000000 0.323056
vt 1.000000 0.404753
vt 0.994992 0.404753
vt 0.997496 0.376857
vt 0.994992 0.376750
vt 0.999995 0.348934
vt 0.999995 0.376857
vt 0.994992 0.404875
vt 0.999994 0.429222
vt 0.994992 0.348934
vt 0.997496 0.318681
vt 0.651158 0.999857
vt 0.491327 0.990978
vt 0.651157 0.000000
vt 0.811083 0.000092
vt 0.057223 0.000000
vt 0.216735 0.000293
vt 0.216735 1.000000
vt 0.057223 0.990735
vt 0.376960 0.000033
vt 0.811084 0.990976
vt 1.000000 0.078201
vt 1.000000 0.318681
vt 0.994993 0.318681
vt 0.994992 0.078201
vt 0.989478 0.240449
vt 0.989479 0.000000
vt 0.994486 0.000000
vt 0.994487 0.240449
vt 0.491326 0.000094
vt 0.376959 0.990769
vt 0.982826 0.400756
vt 0.982830 0.171557
vt 0.987837 0.171557
vt 0.987840 0.400756
vt 0.994486 0.732204
vt 0.994486 0.961373
vt 0.989479 0.961373
vt 0.989479 0.732204
vt 0.994486 0.651980
vt 0.994486 0.661653
vt 0.989479 0.661653
vt 0.989479 0.651980
vt 0.867883 0.666854
vt 0.838613 0.676531
vt 0.981702 0.471317
vt 0.988965 0.471317
vt 0.994520 0.318641
vt 0.989445 0.318641
vt 1.000000 0.010290
vt 0.994992 0.010290
vt 0.988973 0.308476
vt 0.994992 0.308476
vt 0.994992 0.000000
vt 1.000000 0.000000
vt 0.868285 0.085779
vt 0.988973 0.085778
vt 0.928664 0.257337
vt 0.980431 0.257337
vt 0.928671 0.410472
vt 0.980437 0.410471
vt 0.434124 0.014762
vt 0.928670 0.324703
vt 1.000000 0.404753
vt 0.999995 0.348934
vt 0.434124 0.014762
vt 0.868277 0.333462
vt 0.928664 0.171557
vn -1.000000 0.000000 0.000000
vn -1.000000 0.000000 0.000000
vn -1.000000 0.000000 0.000000
vn -1.000000 0.000000 0.000000
vn 0.000000 0.000000 -1.000000
vn 0.000000 0.000000 -1.000000
vn 0.000000 0.000000 -1.000000
vn 0.000000 0.000000 -1.000000
vn 1.000000 0.000000 0.000000
vn 1.000000 0.000000 0.000000
vn 1.000000 0.000000 0.000000
vn 1.000000 0.000000 0.000000
vn 0.000000 0.000000 1.000000
vn 0.000000 0.000000 1.000000
vn 0.000000 0.000000 1.000000
vn 0.000000 0.000000 1.000000
vn 0.000000 -1.000000 0.000000
vn 0.000000 -1.000000 0.000000
vn 0.000000 -1.000000 0.000000
vn 0.000000 -1.000000 0.000000
vn 0.000000 1.000000 0.000000
vn 0.000000 1.000000 0.000000
vn 0.000000 1.000000 0.000000
vn 0.000000 1.000000 0.000000
vn -0.188827 0.000000 0.982010
vn -0.188827 0.000000 0.982010
vn -0.188827 0.000000 0.982010
vn -0.188827 0.000000 0.982010
vn 0.000000 -1.000000 0.000000
vn 0.000000 -1.000000 0.000000
vn 0.000000 -1.000000 0.000000
vn -0.188827 0.000000 -0.982010
vn -0.188827 0.000000 -0.982010
vn -0.188827 0.000000 -0.982010
vn -0.188827 0.000000 -0.982010
vn -0.188827 0.000000 -0.982010
vn -0.188827 0.000000 -0.982010
vn -0.188827 0.000000 -0.982010
vn -0.188827 0.000000 -0.982010
vn -0.087532 0.996162 0.000000
vn -0.087532 0.996162 0.000000
vn -0.087532 0.996162 0.000000
vn 0.188827 -0.000000 0.982010
vn 0.188827 -0.000000 0.982010
vn 0.188827 -0.000000 0.982010
vn 0.188827 -0.000000 0.982010
vn 0.188827 -0.000000 -0.982010
vn 0.188827 -0.000000 -0.982010
vn 0.188827 -0.000000 -0.982010
vn 0.188827 -0.000000 -0.982010
vn 0.188827 0.000000 0.982010
vn 0.188827 0.000000 0.982010
vn 0.188827 0.000000 0.982010
vn 0.188827 0.000000 0.982010
vn -0.188827 0.000000 0.982010
vn -0.188827 0.000000 0.982010
vn -0.188827 0.000000 0.982010
vn -0.188827 0.000000 0.982010
vn 0.087532 0.996162 0.000000
vn 0.087532 0.996162 0.000000
vn 0.087532 0.996162 0.000000
vn -0.204425 -0.032029 -0.978358
vn -0.204425 -0.032029 -0.978358
vn -0.204425 -0.032029 -0.978358
vn -0.204425 -0.032029 -0.978358
vn 0.188827 0.000000 -0.982010
vn 0.188827 0.000000 -0.982010
vn 0.188827 0.000000 -0.982010
vn 0.188827 0.000000 -0.982010
vn 0.188827 0.000000 -0.982010
vn 0.188827 0.000000 -0.982010
vn 0.188827 0.000000 -0.982010
vn 0.188827 0.000000 -0.982010
vn 0.188827 0.000000 -0.982010
vn 0.188827 0.000000 -0.982010
vn 0.188827 0.000000 -0.982010
vn 0.188827 0.000000 -0.982010
vn -0.193267 0.001916 -0.981144
vn -0.193267 0.001916 -0.981144
vn -0.193267 0.001916 -0.981144
vn -0.193267 0.001916 -0.981144
vn 0.188827 0.000000 0.982010
vn 0.188827 0.000000 0.982010
vn 0.188827 0.000000 0.982010
vn 0.188827 0.000000 0.982010
vn -0.199465 -0.021790 0.979663
vn -0.199465 -0.021790 0.979663
vn -0.199465 -0.021790 0.979663
vn -0.199465 -0.021790 0.979663
vn -0.206892 0.166509 -0.964090
vn -0.206892 0.166509 -0.964090
vn -0.206892 0.166509 -0.964090
vn -0.206892 0.166509 -0.964090
vn -0.197051 0.156872 0.967761
vn -0.197051 0.156872 0.967761
vn -0.197051 0.156872 0.967761
vn -0.197051 0.156872 0.967761
vn 0.188827 0.000000 0.982010
vn 0.188827 0.000000 0.982010
vn 0.188827 0.000000 0.982010
vn 0.188827 0.000000 0.982010
vn -0.188827 -0.000000 0.982010
vn -0.188827 -0.000000 0.982010
vn -0.188827 -0.000000 0.982010
vn -0.188827 -0.000000 0.982010
vn 0.188827 -0.000000 0.982010
vn 0.188827 -0.000000 0.982010
vn 0.188827 -0.000000 0.982010
vn 0.188827 -0.000000 0.982010
vn -0.188827 0.000000 -0.982010
vn -0.188827 0.000000 -0.982010
vn -0.188827 0.000000 -0.982010
vn -0.188827 0.000000 -0.982010
vn 0.188827 -0.000000 -0.982010
vn 0.188827 -0.000000 -0.982010
vn 0.188827 -0.000000 -0.982010
vn 0.188827 -0.000000 -0.982010
vn -0.188827 0.000000 -0.982010
vn -0.188827 0.000000 -0.982010
vn -0.188827 0.000000 -0.982010
vn -0.188827 0.000000 -0.982010
vn 0.194554 0.012163 -0.980816
vn 0.194554 0.012163 -0.980816
vn 0.194554 0.012163 -0.980816
vn 0.194554 0.012163 -0.980816
vn 0.194554 0.012163 0.980816
vn 0.194554 0.012163 0.980816
vn 0.194554 0.012163 0.980816
vn 0.194554 0.012163 0.980816
vn -0.188827 0.000000 0.982010
vn -0.188827 0.000000 0.982010
vn -0.188827 0.000000 0.982010
vn -0.188827 0.000000 0.982010
vn 0.193948 -0.079991 -0.977745
vn 0.193948 -0.079991 -0.977745
vn 0.193948 -0.079991 -0.977745
vn 0.193948 -0.079991 -0.977745
vn -0.188827 0.000000 0.982010
vn -0.188827 0.000000 0.982010
vn -0.188827 0.000000 0.982010
vn -0.188827 0.000000 0.982010
vn 0.193948 -0.079991 0.977745
vn 0.193948 -0.079991 0.977745
vn 0.193948 -0.079991 0.977745
vn 0.193948 -0.079991 0.977745
vn -0.373332 -0.927698 0.000000
vn -0.373332 -0.927698 0.000000
vn -0.373332 -0.927698 0.000000
vn 0.373332 -0.927698 0.000000
vn 0.373332 -0.927698 0.000000
vn 0.373332 -0.927698 0.000000
vn -0.373321 0.927702 0.000000
vn -0.373321 0.927702 0.000000
vn -0.373322 0.927702 0.000000
vn 0.373321 0.927702 0.000000
vn 0.373321 0.927702 0.000000
vn 0.373322 0.927702 0.000000
vn 0.197951 0.532162 -0.823176
vn 0.197951 0.532162 -0.823176
vn 0.197951 0.532162 -0.823176
vn 0.197951 0.532162 -0.823176
vn -0.163622 -0.499144 -0.850931
vn -0.163622 -0.499144 -0.850931
vn -0.163622 -0.499144 -0.850931
vn -0.163622 -0.499144 -0.850931
vn -0.163622 -0.499144 0.850931
vn -0.163622 -0.499144 0.850931
vn -0.163622 -0.499144 0.850931
vn -0.163622 -0.499144 0.850931
vn -0.197951 0.532162 0.823176
vn -0.197951 0.532162 0.823176
vn -0.197951 0.532162 0.823176
vn -0.197951 0.532162 0.823176
vn 0.163622 -0.499144 0.850931
vn 0.163622 -0.499144 0.850931
vn 0.163622 -0.499144 0.850931
vn 0.163622 -0.499144 0.850931
vn -0.197951 0.532162 -0.823176
vn -0.197951 0.532162 -0.823176
vn -0.197951 0.532162 -0.823176
vn -0.197951 0.532162 -0.823176
vn -1.000000 0.000000 0.000000
vn -1.000000 0.000000 0.000000
vn -1.000000 0.000000 0.000000
vn -1.000000 0.000000 0.000000
vn 1.000000 0.000015 0.000000
vn 1.000000 0.000015 0.000000
vn 1.000000 0.000015 0.000000
vn 1.000000 0.000015 0.000000
vn 0.163622 -0.499144 -0.850931
vn 0.163622 -0.499144 -0.850931
vn 0.163622 -0.499144 -0.850931
vn 0.163622 -0.499144 -0.850931
vn 0.197951 0.532162 0.823176
vn 0.197951 0.532162 0.823176
vn 0.197951 0.532162 0.823176
vn 0.197951 0.532162 0.823176
vn -1.000000 -0.000049 0.000000
vn -1.000000 -0.000049 0.000000
vn -1.000000 -0.000049 0.000000
vn -1.000000 -0.000049 0.000000
vn 1.000000 0.000000 0.000000
vn 1.000000 0.000000 0.000000
vn 1.000000 0.000000 0.000000
vn 1.000000 0.000000 0.000000
vn 1.000000 0.000000 0.000000
vn 1.000000 0.000000 0.000000
vn 1.000000 0.000000 0.000000
vn 1.000000 0.000000 0.000000
vn -0.365022 0.705492 -0.607487
vn -0.365022 0.705491 -0.607487
vn -0.365022 0.705492 -0.607487
vn -0.365022 0.705491 -0.607487
vn 1.000000 0.000000 0.000000
vn 1.000000 0.000000 0.000000
vn 1.000000 0.000000 0.000000
vn 1.000000 0.000000 0.000000
vn -0.743571 -0.234424 -0.626217
vn -0.743571 -0.234424 -0.626217
vn -0.743571 -0.234424 -0.626217
vn -0.743571 -0.234424 -0.626217
vn -0.701217 0.007487 -0.712909
vn -0.701216 0.007487 -0.712909
vn -0.701216 0.007487 -0.712909
vn -0.701217 0.007487 -0.712909
vn 1.000000 -0.000336 0.000000
vn 1.000000 -0.000336 0.000000
vn 1.000000 -0.000336 0.000000
vn 1.000000 -0.000336 0.000000
vn -1.000000 0.000000 0.000000
vn -1.000000 0.000000 0.000000
vn -1.000000 0.000000 0.000000
vn -1.000000 0.000000 0.000000
vn 0.989084 0.147355 0.000000
vn 0.989084 0.147355 0.000000
vn 0.989084 0.147355 0.000000
vn 0.989084 0.147355 0.000000
vn 0.716797 -0.697282 0.000000
vn 0.716797 -0.697282 0.000000
vn 0.716797 -0.697282 0.000000
vn 0.716797 -0.697282 0.000000
vn -1.000000 0.000000 0.000000
vn -1.000000 0.000000 0.000000
vn -1.000000 0.000000 0.000000
vn -1.000000 0.000000 0.000000
vn 0.000000 -1.000000 0.000000
vn 0.000000 -1.000000 0.000000
vn 0.000000 -1.000000 0.000000
s off
f 1/1/1 2/2/2 3/3/3 4/4/4
f 2/5/5 5/6/6 6/7/7 3/8/8
f 5/9/9 7/10/10 8/11/11 6/12/12
f 7/126/13 1/127/14 4/13/15 8/14/16
f 4/15/17 3/16/18 6/128/19 8/129/20
f 2/130/21 1/131/22 7/17/23 5/18/24
f 9/19/25 10/20/26 11/21/27 12/22/28
f 13/23/29 14/24/30 15/25/31
f 16/26/32 17/27/33 18/28/34 19/29/35
f 20/30/36 21/31/37 22/32/38 23/33/39
f 24/34/40 25/35/41 26/36/42
f 27/37/43 9/19/44 12/22/45 28/38/46
f 21/31/47 29/39/48 30/132/49 22/32/50
f 31/40/51 32/41/52 33/42/53 34/43/54
f 32/41/55 35/44/56 36/45/57 33/42/58
f 37/133/59 25/35/60 24/34/61
f 19/29/62 18/28/63 38/46/64 39/47/65
f 17/27/66 40/48/67 41/49/68 18/28/69
f 38/46/70 42/50/71 43/51/72 44/52/73
f 18/28/74 41/49/75 42/50/76 38/46/77
f 45/53/78 44/52/79 46/54/80 47/55/81
f 34/43/82 33/42/83 48/56/84 49/57/85
f 33/42/86 36/45/87 50/58/88 48/56/89
f 39/47/90 38/46/91 44/52/92 45/53/93
f 48/56/94 50/58/95 51/59/96 52/60/97
f 49/57/98 48/56/99 52/60/100 53/61/101
f 52/60/102 51/59/103 54/62/104 55/63/105
f 53/61/106 52/60/107 55/63/108 56/64/109
f 47/55/110 46/54/111 57/65/112 58/66/113
f 44/52/114 43/51/115 59/67/116 46/54/117
f 58/66/118 57/65/119 21/31/120 20/30/121
f 57/65/122 60/68/123 29/39/124 21/31/125
f 9/19/126 27/37/127 61/69/128 62/70/129
f 10/20/130 9/19/131 62/70/132 63/71/133
f 46/54/134 59/67/135 60/68/136 57/65/137
f 55/63/138 54/62/139 63/71/140 62/70/141
f 56/64/142 55/63/143 62/70/144 61/69/145
f 11/72/146 23/73/147 64/74/148
f 28/75/149 15/76/150 30/77/151
f 16/78/152 35/134/153 26/79/154
f 31/135/155 40/80/156 37/81/157
f 25/82/158 37/83/159 40/48/160 17/27/161
f 14/84/162 64/85/163 23/33/164 22/32/165
f 12/22/166 11/21/167 64/86/168 13/87/169
f 24/88/170 26/89/171 35/44/172 32/41/173
f 13/87/174 15/90/175 28/38/176 12/22/177
f 17/27/178 16/26/179 26/91/180 25/82/181
f 20/92/182 23/93/183 11/94/184 10/95/185
f 27/96/186 28/97/187 30/98/188 29/99/189
f 22/32/190 30/136/191 15/100/192 14/84/193
f 32/41/194 31/40/195 37/101/196 24/88/197
f 36/102/198 35/103/199 16/104/200 19/105/201
f 41/106/202 40/107/203 31/108/204 34/109/205
f 43/110/206 42/111/207 49/112/208 53/113/209
f 51/114/210 50/115/211 39/47/212 45/53/213
f 42/111/214 41/106/215 34/109/216 49/112/217
f 50/116/218 36/102/219 19/105/220 39/117/221
f 54/137/222 51/114/223 45/53/224 47/55/225
f 59/118/226 43/110/227 53/113/228 56/119/229
f 58/120/230 20/92/231 10/95/232 63/121/233
f 61/122/234 27/96/235 29/99/236 60/123/237
f 60/123/238 59/118/239 56/119/240 61/122/241
f 63/121/242 54/124/243 47/125/244 58/120/245
f 64/138/246 14/24/247 13/23/248
