# This file uses centimeters as units for non-parametric coordinates.

v 0.144765 -0.710103 -0.144765
v 0.000000 -0.710103 -0.339897
v -0.144765 -0.710103 -0.144765
v -0.339897 -0.710103 0.000000
v -0.144765 -0.710103 0.144765
v 0.000000 -0.710103 0.339897
v 0.144765 -0.710103 0.144765
v 0.339897 -0.710103 0.000000
v 0.000000 2.299591 0.000000
v 0.130343 -0.890637 -0.130343
v 0.000000 -0.890637 -0.242414
v -0.130343 -0.890637 -0.130343
v -0.242414 -0.890637 0.000000
v -0.130343 -0.890637 0.130343
v 0.000000 -0.890637 0.242414
v 0.130343 -0.890637 0.130343
v 0.242414 -0.890637 0.000000
v 0.134375 -1.280099 -0.134375
v 0.000000 -1.280099 -0.205811
v -0.134375 -1.280099 -0.134375
v -0.205811 -1.280099 0.000000
v -0.134375 -1.280099 0.134375
v 0.000000 -1.280099 0.205811
v 0.134375 -1.280099 0.134375
v 0.205811 -1.280099 0.000000
v 0.277942 -1.306445 -0.277941
v 0.000000 -1.312717 -0.389632
v -0.277941 -1.306445 -0.277941
v -0.389632 -1.312717 0.000000
v -0.277941 -1.306445 0.277941
v 0.000000 -1.312717 0.389632
v 0.277942 -1.306445 0.277941
v 0.389632 -1.312717 0.000000
v 0.277942 -1.491285 -0.277941
v 0.000000 -1.485014 -0.389632
v -0.277941 -1.491285 -0.277941
v -0.389632 -1.485014 0.000000
v -0.277941 -1.491285 0.277941
v 0.000000 -1.485014 0.389632
v 0.277942 -1.491285 0.277941
v 0.389632 -1.485014 0.000000
v 0.120018 -1.510984 -0.120018
v 0.000000 -1.510984 -0.183821
v 0.000000 -1.510984 0.000000
v -0.120018 -1.510984 -0.120018
v -0.183821 -1.510984 0.000000
v -0.120018 -1.510984 0.120018
v 0.000000 -1.510984 0.183821
v 0.120018 -1.510984 0.120018
v 0.183821 -1.510984 0.000000
v 0.156806 -2.073895 -0.177897
v 0.177897 -2.073895 -0.156806
v 0.156806 -2.100220 -0.156806
v 0.156806 -2.100220 0.156806
v 0.177897 -2.073895 0.156806
v 0.156806 -2.073895 0.177897
v -0.156806 -2.100220 0.156806
v -0.156806 -2.073895 0.177897
v -0.177897 -2.073895 0.156806
v -0.177897 -2.073895 -0.156807
v -0.156806 -2.073895 -0.177897
v -0.156806 -2.100220 -0.156807
v 0.204976 -1.496407 -0.180675
v 0.180676 -1.496407 -0.204976
v 0.180676 -1.466076 -0.180675
v 0.180675 -1.466076 0.180676
v 0.180675 -1.496407 0.204976
v 0.204976 -1.496407 0.180676
v -0.180676 -1.466076 0.180675
v -0.204976 -1.496407 0.180675
v -0.180676 -1.496407 0.204976
v -0.180675 -1.496407 -0.204976
v -0.204976 -1.496407 -0.180675
v -0.180675 -1.466076 -0.180675
vt 0.153169 0.320519
vt 0.279199 0.320519
vt 0.059670 1.001573
vt 0.153169 0.320519
vt 0.059670 0.320519
vt 0.153169 0.320519
vt 0.279199 0.320519
vt 0.282273 0.320519
vt 0.152988 0.320519
vt 0.059670 0.320519
vt 0.434279 0.110652
vt 0.486999 0.138679
vt 0.434279 0.191398
vt 0.381559 0.138679
vt 0.353533 0.191398
vt 0.381559 0.244118
vt 0.434279 0.272145
vt 0.486999 0.244118
vt 0.515026 0.191398
vt 0.145263 0.201966
vt 0.218857 0.201966
vt 0.145263 0.201966
vt 0.059670 0.201966
vt 0.145263 0.201966
vt 0.218857 0.201966
vt 0.220373 0.201966
vt 0.144877 0.201966
vt 0.059670 0.201966
vt 0.147911 0.018688
vt 0.194821 0.018688
vt 0.147911 0.018688
vt 0.059670 0.018688
vt 0.147911 0.018688
vt 0.194821 0.018688
vt 0.195716 0.018688
vt 0.147594 0.018688
vt 0.059670 0.018688
vt 0.482510 0.758722
vt 0.555274 0.720039
vt 0.642529 0.807295
vt 0.482510 0.843990
vt 0.409746 0.720039
vt 0.322490 0.807294
vt 0.371064 0.647275
vt 0.285795 0.647275
vt 0.409746 0.574511
vt 0.322491 0.487255
vt 0.482510 0.535829
vt 0.482510 0.450560
vt 0.555274 0.574511
vt 0.642530 0.487256
vt 0.593957 0.647275
vt 0.679225 0.647275
vt 0.687372 0.852137
vt 0.482510 0.903097
vt 0.277648 0.852136
vt 0.226688 0.647275
vt 0.277649 0.442413
vt 0.482510 0.391454
vt 0.687372 0.442414
vt 0.738332 0.647275
vt 0.434279 0.020246
vt 0.556370 0.069308
vt 0.312188 0.069308
vt 0.263126 0.191398
vt 0.312188 0.313489
vt 0.434279 0.362551
vt 0.556370 0.313489
vt 0.605432 0.191398
vt 0.739035 0.038766
vt 0.961077 0.038766
vt 0.961077 0.482848
vt 0.739035 0.482848
vt 0.739035 0.038766
vt 0.961077 0.038766
vt 0.961077 0.482848
vt 0.739035 0.482848
vt 0.739035 0.038766
vt 0.961077 0.038766
vt 0.961077 0.482848
vt 0.739035 0.482848
vt 0.739035 0.038766
vt 0.961077 0.038766
vt 0.961077 0.482848
vt 0.739035 0.482848
vt 0.739035 0.038766
vt 0.961077 0.038766
vt 0.961077 0.482848
vt 0.739035 0.482848
vt 0.023140 0.042143
vt 0.245181 0.042143
vt 0.245181 0.486225
vt 0.023140 0.042143
vt 0.245181 0.042143
vt 0.245181 0.486225
vt 0.023140 0.042143
vt 0.245181 0.042143
vt 0.245181 0.486225
vt 0.023140 0.042143
vt 0.245181 0.042143
vt 0.245181 0.486225
vt 0.023140 0.042143
vt 0.245181 0.042143
vt 0.245181 0.486225
vt 0.023140 0.042143
vt 0.245181 0.042143
vt 0.245181 0.486225
vt 0.023140 0.042143
vt 0.245181 0.042143
vt 0.245181 0.486225
vt 0.023140 0.042143
vt 0.245181 0.042143
vt 0.245181 0.486225
vt 0.739035 0.038766
vt 0.961077 0.038766
vt 0.961077 0.482848
vt 0.739035 0.482848
vt 0.739035 0.038766
vt 0.961077 0.038766
vt 0.739035 0.482848
vt 0.739035 0.038766
vt 0.961077 0.038766
vt 0.961077 0.482848
vt 0.739035 0.482848
vt 0.739035 0.038766
vt 0.961077 0.038766
vt 0.961077 0.482848
vt 0.739035 0.482848
vt 0.739035 0.038766
vt 0.961077 0.038766
vt 0.961077 0.482848
vt 0.739035 0.482848
vt 0.739035 0.038766
vt 0.961077 0.038766
vt 0.961077 0.482848
vt 0.739035 0.482848
vt 0.739035 0.038766
vt 0.961077 0.038766
vt 0.961077 0.482848
vt 0.739035 0.482848
vt 0.739035 0.038766
vt 0.961077 0.038766
vt 0.961077 0.482848
vt 0.739035 0.482848
vt 0.739035 0.038766
vt 0.961077 0.038766
vt 0.961077 0.482848
vt 0.739035 0.482848
vt 0.961077 0.038766
vt 0.961077 0.482848
vt 0.739035 0.482848
vt 0.739035 0.038766
vt 0.961077 0.038766
vt 0.961077 0.482848
vt 0.739035 0.482848
vt 0.739035 0.038766
vt 0.961077 0.038766
vt 0.961077 0.482848
vt 0.739035 0.482848
vt 0.739035 0.038766
vt 0.961077 0.038766
vt 0.961077 0.482848
vt 0.739035 0.482848
vn 0.801244 0.068251 -0.594432
vn 0.801245 0.068251 -0.594432
vn 0.801244 0.068251 -0.594432
vn -0.801245 0.068251 -0.594432
vn -0.801245 0.068251 -0.594432
vn -0.801245 0.068251 -0.594432
vn -0.594432 0.068251 -0.801244
vn -0.594432 0.068251 -0.801244
vn -0.594432 0.068251 -0.801244
vn -0.594432 0.068251 0.801244
vn -0.594432 0.068251 0.801244
vn -0.594432 0.068251 0.801244
vn -0.801245 0.068251 0.594432
vn -0.801245 0.068251 0.594432
vn -0.801245 0.068251 0.594432
vn 0.801244 0.068251 0.594432
vn 0.801244 0.068251 0.594432
vn 0.801244 0.068251 0.594432
vn 0.594432 0.068251 0.801245
vn 0.594432 0.068251 0.801245
vn 0.594432 0.068251 0.801245
vn 0.594432 0.068251 -0.801245
vn 0.594432 0.068251 -0.801245
vn 0.594432 0.068251 -0.801244
vn 0.000000 -1.000000 0.000000
vn 0.000000 -1.000000 0.000000
vn 0.000000 -1.000000 0.000000
vn 0.000000 -1.000000 0.000000
vn 0.000000 -1.000000 0.000000
vn 0.000000 -1.000000 0.000000
vn 0.000000 -1.000000 0.000000
vn 0.000000 -1.000000 0.000000
vn 0.000000 -1.000000 0.000000
vn 0.000000 -1.000000 0.000000
vn 0.000000 -1.000000 0.000000
vn 0.000000 -1.000000 0.000000
vn 0.000000 -1.000000 0.000000
vn 0.000000 -1.000000 0.000000
vn 0.000000 -1.000000 0.000000
vn 0.000000 -1.000000 0.000000
vn 0.000000 -1.000000 0.000000
vn 0.000000 -1.000000 0.000000
vn 0.000000 -1.000000 0.000000
vn 0.000000 -1.000000 0.000000
vn 0.000000 -1.000000 0.000000
vn 0.000000 -1.000000 0.000000
vn 0.000000 -1.000000 0.000000
vn 0.000000 -1.000000 0.000000
vn 0.727413 -0.212098 -0.652599
vn 0.727413 -0.212098 -0.652599
vn 0.727413 -0.212098 -0.652599
vn 0.727413 -0.212097 -0.652599
vn -0.727413 -0.212097 -0.652599
vn -0.727413 -0.212097 -0.652599
vn -0.727413 -0.212097 -0.652599
vn -0.727413 -0.212097 -0.652599
vn -0.652599 -0.212098 -0.727413
vn -0.652599 -0.212098 -0.727413
vn -0.652599 -0.212098 -0.727413
vn -0.652599 -0.212098 -0.727413
vn -0.652599 -0.212098 0.727413
vn -0.652599 -0.212098 0.727413
vn -0.652599 -0.212098 0.727413
vn -0.652599 -0.212098 0.727413
vn -0.727413 -0.212097 0.652599
vn -0.727413 -0.212097 0.652599
vn -0.727413 -0.212097 0.652599
vn -0.727413 -0.212097 0.652599
vn 0.727413 -0.212097 0.652599
vn 0.727413 -0.212098 0.652599
vn 0.727413 -0.212098 0.652599
vn 0.727413 -0.212097 0.652599
vn 0.652599 -0.212098 0.727413
vn 0.652599 -0.212098 0.727413
vn 0.652599 -0.212098 0.727413
vn 0.652599 -0.212098 0.727413
vn 0.652599 -0.212098 -0.727413
vn 0.652599 -0.212098 -0.727413
vn 0.652599 -0.212098 -0.727413
vn 0.652599 -0.212098 -0.727413
vn 0.569167 -0.043797 -0.821055
vn 0.569167 -0.043797 -0.821055
vn 0.569167 -0.043797 -0.821055
vn 0.569167 -0.043797 -0.821055
vn -0.569167 -0.043797 -0.821055
vn -0.569167 -0.043797 -0.821055
vn -0.569167 -0.043797 -0.821055
vn -0.569167 -0.043797 -0.821055
vn -0.821055 -0.043797 -0.569167
vn -0.821055 -0.043797 -0.569167
vn -0.821055 -0.043797 -0.569167
vn -0.821055 -0.043797 -0.569167
vn -0.821055 -0.043797 0.569167
vn -0.821055 -0.043797 0.569167
vn -0.821055 -0.043797 0.569167
vn -0.821055 -0.043797 0.569167
vn -0.569167 -0.043797 0.821055
vn -0.569167 -0.043797 0.821055
vn -0.569167 -0.043797 0.821055
vn -0.569167 -0.043797 0.821055
vn 0.569167 -0.043797 0.821055
vn 0.569167 -0.043797 0.821055
vn 0.569167 -0.043797 0.821055
vn 0.569167 -0.043797 0.821055
vn 0.821055 -0.043797 0.569167
vn 0.821055 -0.043797 0.569167
vn 0.821055 -0.043797 0.569167
vn 0.821055 -0.043797 0.569167
vn 0.821055 -0.043797 -0.569167
vn 0.821055 -0.043797 -0.569167
vn 0.821055 -0.043797 -0.569167
vn 0.821055 -0.043797 -0.569167
vn 0.053493 0.986586 -0.154232
vn 0.053493 0.986586 -0.154232
vn 0.053493 0.986586 -0.154232
vn 0.053493 0.986586 -0.154232
vn -0.053493 0.986586 -0.154231
vn -0.053493 0.986586 -0.154231
vn -0.053493 0.986586 -0.154231
vn -0.053493 0.986586 -0.154231
vn -0.154232 0.986586 -0.053493
vn -0.154232 0.986586 -0.053493
vn -0.154232 0.986586 -0.053493
vn -0.154232 0.986586 -0.053493
vn -0.154232 0.986586 0.053493
vn -0.154232 0.986586 0.053493
vn -0.154232 0.986586 0.053493
vn -0.154232 0.986586 0.053493
vn -0.053493 0.986586 0.154231
vn -0.053493 0.986586 0.154231
vn -0.053493 0.986586 0.154231
vn -0.053493 0.986586 0.154231
vn 0.053493 0.986586 0.154231
vn 0.053493 0.986586 0.154231
vn 0.053493 0.986586 0.154231
vn 0.053493 0.986586 0.154231
vn 0.154232 0.986586 0.053493
vn 0.154232 0.986586 0.053493
vn 0.154232 0.986586 0.053493
vn 0.154232 0.986586 0.053493
vn 0.154232 0.986586 -0.053493
vn 0.154232 0.986586 -0.053493
vn 0.154232 0.986586 -0.053493
vn 0.154232 0.986586 -0.053493
vn 0.372869 0.000000 -0.927884
vn 0.372869 0.000000 -0.927884
vn 0.372869 0.000000 -0.927884
vn 0.372869 0.000000 -0.927884
vn -0.372869 0.000000 -0.927884
vn -0.372869 0.000000 -0.927884
vn -0.372869 0.000000 -0.927884
vn -0.372869 0.000000 -0.927884
vn -0.927884 0.000000 -0.372869
vn -0.927884 0.000000 -0.372869
vn -0.927884 0.000000 -0.372869
vn -0.927884 0.000000 -0.372869
vn -0.927884 0.000000 0.372869
vn -0.927884 0.000000 0.372869
vn -0.927884 0.000000 0.372869
vn -0.927884 0.000000 0.372869
vn -0.372869 0.000000 0.927884
vn -0.372869 0.000000 0.927884
vn -0.372869 0.000000 0.927884
vn -0.372869 0.000000 0.927884
vn 0.372869 0.000000 0.927884
vn 0.372869 0.000000 0.927884
vn 0.372869 0.000000 0.927884
vn 0.372869 0.000000 0.927884
vn 0.927884 0.000000 0.372869
vn 0.927884 0.000000 0.372869
vn 0.927884 0.000000 0.372869
vn 0.927884 0.000000 0.372869
vn 0.927884 0.000000 -0.372869
vn 0.927884 0.000000 -0.372869
vn 0.927884 0.000000 -0.372869
vn 0.927884 0.000000 -0.372869
vn 0.033021 -0.993341 -0.110380
vn 0.033021 -0.993341 -0.110380
vn 0.033021 -0.993341 -0.110380
vn 0.033021 -0.993341 -0.110380
vn -0.033021 -0.993341 -0.110380
vn -0.033021 -0.993341 -0.110380
vn -0.033021 -0.993341 -0.110380
vn -0.033021 -0.993341 -0.110380
vn -0.110380 -0.993341 -0.033021
vn -0.110380 -0.993341 -0.033021
vn -0.110380 -0.993341 -0.033021
vn -0.110380 -0.993341 -0.033021
vn -0.110380 -0.993341 0.033021
vn -0.110380 -0.993341 0.033021
vn -0.110380 -0.993341 0.033021
vn -0.110380 -0.993341 0.033021
vn -0.033021 -0.993341 0.110380
vn -0.033021 -0.993341 0.110380
vn -0.033021 -0.993341 0.110380
vn -0.033021 -0.993341 0.110380
vn 0.033021 -0.993341 0.110380
vn 0.033021 -0.993341 0.110380
vn 0.033021 -0.993341 0.110380
vn 0.033021 -0.993341 0.110380
vn 0.110380 -0.993341 0.033021
vn 0.110380 -0.993341 0.033021
vn 0.110380 -0.993341 0.033021
vn 0.110380 -0.993341 0.033021
vn 0.110380 -0.993341 -0.033021
vn 0.110380 -0.993341 -0.033021
vn 0.110380 -0.993341 -0.033021
vn 0.110380 -0.993341 -0.033021
vn 0.000000 -0.044041 -0.999030
vn 0.000000 -0.044041 -0.999030
vn 0.000000 -0.044041 -0.999030
vn 0.000000 -0.044041 -0.999030
vn 0.000000 -0.044041 0.999030
vn 0.000000 -0.044041 0.999030
vn 0.000000 -0.044041 0.999030
vn 0.000000 -0.044041 0.999030
vn -0.999030 -0.044041 0.000000
vn -0.999030 -0.044041 0.000000
vn -0.999030 -0.044041 0.000000
vn -0.999030 -0.044041 0.000000
vn 0.000000 1.000000 0.000000
vn 0.000000 1.000000 0.000000
vn 0.000000 1.000000 0.000000
vn 0.000000 1.000000 0.000000
vn 0.999030 -0.044041 0.000000
vn 0.999030 -0.044041 0.000000
vn 0.999030 -0.044041 0.000000
vn 0.999030 -0.044041 0.000000
vn 0.615242 -0.492908 -0.615240
vn 0.615242 -0.492908 -0.615240
vn 0.615242 -0.492908 -0.615240
vn 0.615242 -0.492908 0.615240
vn 0.615242 -0.492908 0.615240
vn 0.615242 -0.492908 0.615240
vn -0.615242 -0.492908 0.615240
vn -0.615242 -0.492908 0.615240
vn -0.615242 -0.492908 0.615240
vn -0.615234 -0.492902 -0.615252
vn -0.615234 -0.492902 -0.615252
vn -0.615234 -0.492902 -0.615252
vn 0.615247 0.492913 -0.615230
vn 0.615247 0.492913 -0.615230
vn 0.615247 0.492913 -0.615230
vn 0.615228 0.492914 0.615249
vn 0.615228 0.492914 0.615249
vn 0.615228 0.492914 0.615249
vn -0.615247 0.492913 0.615230
vn -0.615247 0.492913 0.615230
vn -0.615247 0.492913 0.615230
vn -0.615235 0.492920 -0.615236
vn -0.615235 0.492920 -0.615236
vn -0.615235 0.492920 -0.615236
vn 0.780426 -0.625248 0.000000
vn 0.780426 -0.625248 0.000000
vn 0.780426 -0.625248 0.000000
vn 0.780426 -0.625248 0.000000
vn 0.000001 -0.625240 -0.780433
vn 0.000001 -0.625240 -0.780433
vn 0.000001 -0.625240 -0.780433
vn 0.000001 -0.625240 -0.780433
vn 0.705900 -0.058548 -0.705887
vn 0.705900 -0.058548 -0.705887
vn 0.705900 -0.058548 -0.705887
vn 0.705900 -0.058548 -0.705887
vn 0.000000 -0.625246 0.780428
vn 0.000000 -0.625246 0.780428
vn 0.000000 -0.625246 0.780428
vn 0.000000 -0.625246 0.780428
vn 0.705888 -0.058548 0.705900
vn 0.705888 -0.058548 0.705900
vn 0.705888 -0.058548 0.705900
vn 0.705888 -0.058548 0.705900
vn -0.780426 -0.625248 0.000000
vn -0.780426 -0.625248 0.000000
vn -0.780426 -0.625248 0.000000
vn -0.780426 -0.625248 0.000000
vn -0.705900 -0.058548 0.705887
vn -0.705900 -0.058548 0.705887
vn -0.705900 -0.058548 0.705887
vn -0.705900 -0.058548 0.705887
vn -0.705889 -0.058547 -0.705899
vn -0.705889 -0.058547 -0.705899
vn -0.705889 -0.058547 -0.705899
vn -0.705889 -0.058547 -0.705899
vn 0.780421 0.625255 0.000001
vn 0.780421 0.625255 0.000001
vn 0.780421 0.625255 0.000001
vn 0.780421 0.625255 0.000001
vn 0.000000 0.625261 -0.780416
vn 0.000000 0.625261 -0.780416
vn 0.000000 0.625261 -0.780416
vn 0.000000 0.625261 -0.780416
vn -0.000001 0.625255 0.780421
vn -0.000001 0.625255 0.780421
vn -0.000001 0.625255 0.780421
vn -0.000001 0.625255 0.780421
vn -0.780421 0.625254 -0.000001
vn -0.780421 0.625254 -0.000001
vn -0.780421 0.625254 -0.000001
vn -0.780421 0.625254 -0.000001
vn 0.000000 -1.000000 0.000000
vn 0.000000 -1.000000 0.000000
vn 0.000000 -1.000000 0.000000
vn 0.000000 -1.000000 0.000000
s off
f 1/1/1 2/2/2 9/3/3
f 2/2/4 3/4/5 9/3/6
f 3/4/7 4/5/8 9/3/9
f 4/5/10 5/6/11 9/3/12
f 5/6/13 6/7/14 9/3/15
f 6/8/16 7/9/17 9/3/18
f 7/9/19 8/10/20 9/3/21
f 8/10/22 1/1/23 9/3/24
f 43/11/25 42/12/26 44/13/27
f 45/14/28 43/11/29 44/13/30
f 46/15/31 45/14/32 44/13/33
f 47/16/34 46/15/35 44/13/36
f 48/17/37 47/16/38 44/13/39
f 49/18/40 48/17/41 44/13/42
f 50/19/43 49/18/44 44/13/45
f 42/12/46 50/19/47 44/13/48
f 2/2/49 1/1/50 10/20/51 11/21/52
f 3/4/53 2/2/54 11/21/55 12/22/56
f 4/5/57 3/4/58 12/22/59 13/23/60
f 5/6/61 4/5/62 13/23/63 14/24/64
f 6/7/65 5/6/66 14/24/67 15/25/68
f 7/9/69 6/8/70 15/26/71 16/27/72
f 8/10/73 7/9/74 16/27/75 17/28/76
f 1/1/77 8/10/78 17/28/79 10/20/80
f 11/21/81 10/20/82 18/29/83 19/30/84
f 12/22/85 11/21/86 19/30/87 20/31/88
f 13/23/89 12/22/90 20/31/91 21/32/92
f 14/24/93 13/23/94 21/32/95 22/33/96
f 15/25/97 14/24/98 22/33/99 23/34/100
f 16/27/101 15/26/102 23/35/103 24/36/104
f 17/28/105 16/27/106 24/36/107 25/37/108
f 10/20/109 17/28/110 25/37/111 18/29/112
f 19/38/113 18/39/114 26/40/115 27/41/116
f 20/42/117 19/38/118 27/41/119 28/43/120
f 21/44/121 20/42/122 28/43/123 29/45/124
f 22/46/125 21/44/126 29/45/127 30/47/128
f 23/48/129 22/46/130 30/47/131 31/49/132
f 24/50/133 23/48/134 31/49/135 32/51/136
f 25/52/137 24/50/138 32/51/139 33/53/140
f 18/39/141 25/52/142 33/53/143 26/40/144
f 27/41/145 26/40/146 34/54/147 35/55/148
f 28/43/149 27/41/150 35/55/151 36/56/152
f 29/45/153 28/43/154 36/56/155 37/57/156
f 30/47/157 29/45/158 37/57/159 38/58/160
f 31/49/161 30/47/162 38/58/163 39/59/164
f 32/51/165 31/49/166 39/59/167 40/60/168
f 33/53/169 32/51/170 40/60/171 41/61/172
f 26/40/173 33/53/174 41/61/175 34/54/176
f 35/62/177 34/63/178 42/12/179 43/11/180
f 36/64/181 35/62/182 43/11/183 45/14/184
f 37/65/185 36/64/186 45/14/187 46/15/188
f 38/66/189 37/65/190 46/15/191 47/16/192
f 39/67/193 38/66/194 47/16/195 48/17/196
f 40/68/197 39/67/198 48/17/199 49/18/200
f 41/69/201 40/68/202 49/18/203 50/19/204
f 34/63/205 41/69/206 50/19/207 42/12/208
f 64/70/209 51/71/210 61/72/211 72/73/212
f 56/74/213 67/75/214 71/76/215 58/77/216
f 59/78/217 70/79/218 73/80/219 60/81/220
f 65/82/221 74/83/222 69/84/223 66/85/224
f 52/86/225 63/87/226 68/88/227 55/89/228
f 51/90/229 52/91/230 53/92/231
f 54/93/232 55/94/233 56/95/234
f 57/96/235 58/97/236 59/98/237
f 60/99/238 61/100/239 62/101/240
f 63/102/241 64/103/242 65/104/243
f 66/105/244 67/106/245 68/107/246
f 69/108/247 70/109/248 71/110/249
f 72/111/250 73/112/251 74/113/252
f 52/114/253 55/115/254 54/116/255 53/117/256
f 53/118/257 62/119/258 61/72/259 51/120/260
f 51/121/261 64/122/262 63/123/263 52/124/264
f 56/125/265 58/126/266 57/127/267 54/128/268
f 55/129/269 68/130/270 67/131/271 56/132/272
f 59/133/273 60/134/274 62/135/275 57/136/276
f 58/137/277 71/138/278 70/139/279 59/140/280
f 60/141/281 73/142/282 72/143/283 61/144/284
f 65/145/285 66/146/286 68/147/287 63/148/288
f 64/70/289 72/149/290 74/150/291 65/151/292
f 66/152/293 69/153/294 71/154/295 67/155/296
f 69/156/297 74/157/298 73/158/299 70/159/300
f 53/160/301 54/161/302 57/162/303 62/163/304
